<svg width="257.000000" height="368.000000" viewBox="0 0 257 368" fill="none" xmlns="http://www.w3.org/2000/svg" xmlns:xlink="http://www.w3.org/1999/xlink">
	<desc>
			Created with Pixso.
	</desc>
	<defs/>
	<ellipse id="Ellipse 3" cx="95.000000" cy="356.000000" rx="95.000000" ry="12.000000" fill="#000000" fill-opacity="0.500000"/>
	<rect id="Rectangle 345" x="119.195526" y="255.056396" rx="3.515357" width="45.030872" height="92.943726" fill="#00ADB5" fill-opacity="1.000000"/>
	<rect id="Rectangle 345" x="119.195526" y="255.056396" rx="3.515357" width="45.030872" height="92.943726" stroke="#000000" stroke-opacity="1.000000" stroke-width="1.644861" stroke-linejoin="round"/>
	<rect id="Rectangle 346" x="1.394867" y="281.894775" rx="3.515357" width="45.030872" height="66.105324" fill="#EEEEEE" fill-opacity="1.000000"/>
	<rect id="Rectangle 346" x="1.394867" y="281.894775" rx="3.515357" width="45.030872" height="66.105324" stroke="#000000" stroke-opacity="1.000000" stroke-width="1.644861" stroke-linejoin="round"/>
	<rect id="Rectangle 347" x="210.338104" y="152.025635" rx="3.515357" width="45.030872" height="195.974350" fill="#00ADB5" fill-opacity="1.000000"/>
	<rect id="Rectangle 347" x="210.338104" y="152.025635" rx="3.515357" width="45.030872" height="195.974350" stroke="#000000" stroke-opacity="1.000000" stroke-width="1.644861" stroke-linejoin="round"/>
	<path id="Rectangle 41" d="M61.16 128.16L107.46 128.16C107.46 128.16 100.08 195.6 90.04 206.65C80 217.71 27.44 248.03 27.44 248.03L9.74 237.17L42.74 185.2C42.74 185.2 39.11 164.93 61.16 128.16Z" fill="#00ADB5" fill-opacity="1.000000" fill-rule="nonzero"/>
	<path id="Rectangle 41" d="M107.46 128.16C107.46 128.16 100.08 195.6 90.04 206.65C80 217.71 27.44 248.03 27.44 248.03L9.74 237.17L42.74 185.2C42.74 185.2 39.11 164.93 61.16 128.16L107.46 128.16Z" stroke="#000000" stroke-opacity="1.000000" stroke-width="1.398869"/>
	<path id="Vector 60" d="M28.19 247.42L9.74 237.17L0.4 247.22C0.4 247.22 16.14 256.34 27.12 259.92L22.47 253.79L28.19 247.42Z" fill="#EEEEEE" fill-opacity="1.000000" fill-rule="nonzero"/>
	<path id="Vector 60" d="M28.19 247.42L22.47 253.79L27.12 259.92C16.14 256.34 0.4 247.22 0.4 247.22L9.74 237.17L28.19 247.42Z" stroke="#000000" stroke-opacity="1.000000" stroke-width="1.398869" stroke-linejoin="round"/>
	<path id="Rectangle 40" d="M61.36 127.18L111.95 127.11C111.95 127.11 140.07 151.84 143.61 166.35C147.16 180.86 143.12 233.52 143.12 233.52L122.67 242.56L101.56 186.94C101.56 186.94 79.49 166.04 61.36 127.18Z" fill="#00ADB5" fill-opacity="1.000000" fill-rule="nonzero"/>
	<path id="Rectangle 40" d="M111.95 127.11C111.95 127.11 140.07 151.84 143.61 166.35C147.16 180.86 143.12 233.52 143.12 233.52L122.67 242.56L101.56 186.94C101.56 186.94 79.49 166.04 61.36 127.18L111.95 127.11Z" stroke="#000000" stroke-opacity="1.000000" stroke-width="1.398869"/>
	<mask id="mask_1_4369" fill="white">
		<path id="Union" d="M105.736 44.6846C106.886 44.2649 107.982 43.6514 108.982 42.7994C116.53 36.369 113.293 26.6672 108.726 21.6162C104.158 16.5653 76.2138 18.58 89.3959 41.979C89.4514 42.0125 89.508 42.046 89.5656 42.08C91.0393 46.7694 89.7964 50.7917 88.3051 55.618C87.6969 57.5864 87.0473 59.6886 86.5239 62.0243L100.505 61.0226C104.347 55.8046 105.804 50.5448 105.736 44.6846Z" clip-rule="evenodd" fill="" fill-opacity="1.000000" fill-rule="evenodd"/>
	</mask>
	<path id="Union" d="M105.736 44.6846C106.886 44.2649 107.982 43.6514 108.982 42.7994C116.53 36.369 113.293 26.6672 108.726 21.6162C104.158 16.5653 76.2138 18.58 89.3959 41.979C89.4514 42.0125 89.508 42.046 89.5656 42.08C91.0393 46.7694 89.7964 50.7917 88.3051 55.618C87.6969 57.5864 87.0473 59.6886 86.5239 62.0243L100.505 61.0226C104.347 55.8046 105.804 50.5448 105.736 44.6846Z" clip-rule="evenodd" fill="#F5B9AB" fill-opacity="1.000000" fill-rule="evenodd" mask="url(#mask_1_4369)"/>
	<path id="Union" d="M105.454 43.912Q107.123 43.3032 108.449 42.1733Q113.289 38.0498 112.58 31.783Q111.975 26.4357 108.116 22.1678Q106.549 20.4358 101.883 20.1979Q96.8369 19.9407 92.7563 21.8722Q88.0761 24.0876 87.0112 28.4122Q85.6989 33.7411 90.1124 41.5753L89.3959 41.979L89.8163 41.2721L89.986 41.373Q90.1164 41.4506 90.2105 41.5696Q90.3047 41.6886 90.3502 41.8334Q91.9007 46.7675 89.0909 55.8608L89.0909 55.8608L89.0909 55.8608Q87.8427 59.9004 87.3264 62.2042L86.5239 62.0243L86.4651 61.204L100.446 60.2023L100.505 61.0226L99.8424 60.5349Q105.016 53.509 104.913 44.6942Q104.912 44.6307 104.922 44.5679Q104.931 44.5051 104.949 44.4443Q104.968 44.3836 104.995 44.3265Q105.023 44.2693 105.059 44.2171Q105.095 44.1649 105.139 44.1188Q105.182 44.0727 105.233 44.0339Q105.283 43.9951 105.339 43.9644Q105.394 43.9338 105.454 43.912ZM106.017 45.4573L105.736 44.6846L106.558 44.6749Q106.668 54.0408 101.167 61.5103Q101.06 61.6557 100.902 61.7428Q100.743 61.83 100.563 61.8429L86.5827 62.8447Q86.462 62.8533 86.3441 62.8269Q86.265 62.8092 86.1909 62.7764Q86.1169 62.7436 86.0506 62.697Q85.9844 62.6503 85.9285 62.5917Q85.8726 62.533 85.8292 62.4646Q85.7859 62.3962 85.7567 62.3206Q85.7275 62.2451 85.7136 62.1653Q85.6997 62.0855 85.7017 62.0045Q85.7036 61.9235 85.7213 61.8445Q86.2519 59.4771 87.5193 55.3752L87.5193 55.3752L87.5193 55.3752Q90.1779 46.7715 88.7809 42.3264L89.5656 42.08L89.1451 42.7867L88.9755 42.6858Q88.787 42.5737 88.6794 42.3827Q83.9459 33.9806 85.414 28.0189Q86.6659 22.9354 92.0526 20.3855Q96.5072 18.2769 101.966 18.5552Q107.313 18.8278 109.336 21.0646Q113.55 25.725 114.214 31.5981Q115.022 38.7345 109.515 43.4254Q107.964 44.7472 106.017 45.4573Z" fill="#000000" fill-opacity="1.000000" fill-rule="nonzero"/>
	<path id="Vector 66" d="M86.88 27.84C84.69 30.89 87.05 38.41 88.79 40.29C74.38 32.29 83.5 14.26 87.95 17.55C88.67 10.88 96.32 8.53 101.54 14.16C114.62 3.6 115.31 21.6 110.69 24.34C106.07 27.07 100.47 24.47 97.57 25.88C94.66 27.29 92.87 35.84 91.93 31.09C90.99 26.35 89.62 24.04 86.88 27.84Z" fill="#00ADB5" fill-opacity="1.000000" fill-rule="nonzero"/>
	<path id="Vector 66" d="M86.88 27.84C89.62 24.04 90.99 26.35 91.93 31.09C92.87 35.84 94.66 27.29 97.57 25.88C100.47 24.47 106.07 27.07 110.69 24.34C115.31 21.6 114.62 3.6 101.54 14.16C96.32 8.53 88.67 10.88 87.95 17.55C83.5 14.26 74.38 32.29 88.79 40.29C87.05 38.41 84.69 30.89 86.88 27.84Z" stroke="#000000" stroke-opacity="1.000000" stroke-width="1.644861"/>
	<path id="Vector 53" d="M113.64 128.26C128.72 118.23 122.42 83.58 120.28 73.72C119.89 71.95 119.32 70.25 118.63 68.57C112.93 54.8 98.87 43.7 85.4 50.1C56.71 63.73 60.98 107.22 61.25 128.59L113.64 128.26Z" fill="#EEEEEE" fill-opacity="1.000000" fill-rule="nonzero"/>
	<path id="Vector 53" d="M113.64 128.26L61.25 128.59C60.98 107.21 56.71 63.71 85.42 50.09C98.89 43.7 112.93 54.8 118.63 68.57C119.32 70.25 119.9 71.97 120.28 73.75C122.43 83.63 128.7 118.24 113.64 128.26Z" stroke="#000000" stroke-opacity="1.000000" stroke-width="1.644861" stroke-linejoin="round"/>
	<path id="Vector 54" d="M146.89 66.6L158.99 81.37C158.99 81.37 120.86 121.49 103.75 123.01C94.35 123.84 75.86 95.13 75.86 95.13L92.93 68.6L106.11 95.13L146.89 66.6Z" fill="#EEEEEE" fill-opacity="1.000000" fill-rule="evenodd"/>
	<path id="Vector 61" d="M93.83 70.53L106 94.31L146.89 66.6L158.99 81.37C158.99 81.37 123.05 121.24 102.04 123.11C95.43 123.69 76.17 94.84 76.17 94.84" stroke="#000000" stroke-opacity="1.000000" stroke-width="1.644861"/>
	<path id="Vector 59" d="M150.91 63.93L146.12 67.01L158.15 82.25L161.94 79.19C165.96 75.93 166.6 70.03 163.37 65.98C160.35 62.21 154.98 61.33 150.91 63.93Z" fill="#F5B9AB" fill-opacity="1.000000" fill-rule="nonzero"/>
	<path id="Vector 59" d="M150.91 63.93C154.98 61.33 160.35 62.21 163.37 65.98C166.6 70.03 165.96 75.93 161.94 79.19L158.15 82.25L146.12 67.01L150.91 63.93Z" stroke="#000000" stroke-opacity="1.000000" stroke-width="1.644861" stroke-linejoin="round"/>
	<path id="Vector 56" d="M143.36 231.6L122.67 242.39L126.23 255.87L153.86 238.86L145.73 239.96L143.36 231.6Z" fill="#EEEEEE" fill-opacity="1.000000" fill-rule="nonzero"/>
	<path id="Vector 56" d="M143.36 231.6L145.73 239.96L153.86 238.86L126.23 255.87L122.67 242.39L143.36 231.6Z" stroke="#000000" stroke-opacity="1.000000" stroke-width="1.398869" stroke-linejoin="round"/>
</svg>
