<svg width="535.000000" height="580.000000" viewBox="0 0 535 580" fill="none" xmlns="http://www.w3.org/2000/svg" xmlns:xlink="http://www.w3.org/1999/xlink">
	<desc>
			Created with Pixso.
	</desc>
	<defs/>
	<ellipse id="Ellipse 3" cx="174.000000" cy="568.000000" rx="174.000000" ry="12.000000" fill="#000000" fill-opacity="0.500000"/>
	<ellipse id="Ellipse 2" cx="288.000000" cy="257.000000" rx="246.500000" ry="256.500000" stroke="#000000" stroke-opacity="0" stroke-width="1.000000"/>
	<path id="Vector 8" d="M184.86 414.09C183.6 414.28 182.12 414.38 181.82 415.94C181.59 417.15 181.68 418.39 182.37 419.44C183.56 421.23 185.33 422.27 187.45 421.91C189.36 421.58 191.97 419.78 191.97 417.55C191.97 416.3 191.1 415.03 190.38 414.09C189.61 413.09 188.94 412.03 187.97 411.2C186.66 410.09 185.61 409.98 184.43 411.29C183.78 412.01 183.18 412.99 182.89 413.93C182.75 414.39 182.86 414.76 182.86 415.23C182.86 415.84 182.75 414.93 182.86 414.63" stroke="#00ADB5" stroke-opacity="0.500000" stroke-width="1.000000" stroke-linejoin="round" stroke-linecap="round"/>
	<path id="Vector 9" d="M191.38 417.63C192.45 418.61 193.35 419.51 195.25 419.56C196.57 419.59 197.9 419.25 199.14 418.88C200.03 418.61 202.88 417.21 200.57 417.09" stroke="#00ADB5" stroke-opacity="0.500000" stroke-width="1.000000" stroke-linejoin="round" stroke-linecap="round"/>
	<path id="Vector 10" d="M202.42 409C201 410.62 199.05 413.8 199.79 416.24C200.04 417.1 200.42 417.67 200.9 418.41C201.87 419.88 203.38 419.42 204.75 419.04C205.75 418.76 206.93 417.88 207.31 416.88C207.83 415.5 206.74 413.34 205.82 412.39C204.8 411.33 204 410.04 202.86 409.11C202.56 408.86 202.33 408.59 201.93 408.69C201.49 408.79 201.31 409.23 201.9 409.23" stroke="#00ADB5" stroke-opacity="0.500000" stroke-width="1.000000" stroke-linejoin="round" stroke-linecap="round"/>
	<path id="Vector 8" d="M302.28 186.58C301.03 186.77 299.54 186.87 299.25 188.43C299.01 189.64 299.1 190.88 299.8 191.93C300.99 193.72 302.75 194.77 304.88 194.4C306.78 194.07 309.4 192.27 309.4 190.05C309.4 188.79 308.53 187.53 307.81 186.59C307.04 185.58 306.37 184.52 305.4 183.7C304.09 182.58 303.03 182.48 301.85 183.79C301.21 184.5 300.6 185.48 300.32 186.42C300.18 186.88 300.28 187.25 300.28 187.72C300.28 188.34 300.17 187.42 300.28 187.12" stroke="#00ADB5" stroke-opacity="0.500000" stroke-width="1.000000" stroke-linejoin="round" stroke-linecap="round"/>
	<path id="Vector 9" d="M308.8 190.12C309.87 191.11 310.78 192 312.67 192.05C314 192.08 315.32 191.74 316.57 191.37C317.45 191.1 320.31 189.7 318 189.58" stroke="#00ADB5" stroke-opacity="0.500000" stroke-width="1.000000" stroke-linejoin="round" stroke-linecap="round"/>
	<path id="Vector 10" d="M319.84 181.49C318.43 183.11 316.48 186.29 317.21 188.73C317.47 189.59 317.84 190.17 318.33 190.9C319.3 192.37 320.81 191.91 322.18 191.53C323.17 191.25 324.35 190.37 324.73 189.37C325.26 187.99 324.16 185.83 323.25 184.88C322.23 183.82 321.42 182.53 320.29 181.6C319.98 181.35 319.75 181.09 319.36 181.18C318.92 181.28 318.73 181.72 319.32 181.72" stroke="#00ADB5" stroke-opacity="0.500000" stroke-width="1.000000" stroke-linejoin="round" stroke-linecap="round"/>
	<path id="Vector 75" d="M193.93 139.39C201.18 135.8 207.04 129.85 212.94 124.24C217.57 119.84 222.43 115.49 227.55 111.68C228.56 110.93 229.98 109.42 231.35 110.07C232.7 110.7 233.48 112.44 234.55 113.47C237.18 116 239.54 119.09 241.7 122.07C244.09 125.34 240.52 127.16 238.31 129.3C235.8 131.74 233.41 134.25 230.67 136.4C228.06 138.44 225.97 141.26 223.59 143.57C219.96 147.1 216.56 150.85 212.94 154.38C210.78 156.48 208.31 158.19 206.23 160.37C205.51 161.13 204.83 162.14 203.99 162.77C203.32 163.28 202.39 161.32 202.15 160.95C200.24 158.02 197.29 156.02 195.43 152.95C194.26 151.03 193.47 148.65 192.07 146.89C191.4 146.05 189.72 144.16 190.45 142.93C191.2 141.68 193.33 141.08 194.49 140.18C195.4 139.48 196.49 138.62 197.52 138.13C198.27 137.78 199.01 137.15 199.68 136.67C201.44 135.4 199.57 135.94 198.38 136.41" stroke="#00ADB5" stroke-opacity="0.500000" stroke-width="1.000000" stroke-linejoin="round" stroke-linecap="round"/>
	<path id="Vector 76" d="M195.04 145.14C199.45 147.99 203.41 152.1 206.86 156.16C206.95 156.27 207.79 156.87 207.66 157.1C207.41 157.53 204.55 155.57 204.27 155.37" stroke="#00ADB5" stroke-opacity="0.500000" stroke-width="1.000000" stroke-linejoin="round" stroke-linecap="round"/>
	<path id="Vector 77" d="M199.41 141.03C202.99 142.1 205.13 144.13 208.02 146.3C209.3 147.27 210.62 148.14 211.77 149.28C212.31 149.81 212.7 150.51 213.2 151.09C213.89 151.88 211.08 150.17 210.75 149.98" stroke="#00ADB5" stroke-opacity="0.500000" stroke-width="1.000000" stroke-linejoin="round" stroke-linecap="round"/>
	<path id="Vector 78" d="M204.62 137.84C207.12 140.2 209.64 142.52 212.22 144.77C213.2 145.63 214.32 146.42 215.17 147.43C216.67 149.22 214.7 146.89 214.03 146.24" stroke="#00ADB5" stroke-opacity="0.500000" stroke-width="1.000000" stroke-linejoin="round" stroke-linecap="round"/>
	<path id="Vector 79" d="M208.13 135.6C209.98 136.78 211.92 137.92 213.5 139.5C214.14 140.15 214.68 140.92 215.37 141.52C216.22 142.26 216.96 143.13 217.82 143.85C219.04 144.88 219.22 145.17 217.77 143.89" stroke="#00ADB5" stroke-opacity="0.500000" stroke-width="1.000000" stroke-linejoin="round" stroke-linecap="round"/>
	<path id="Vector 80" d="M212.65 132.15C214.7 133.82 216.6 135.51 218.31 137.55C219.07 138.45 219.68 139.49 220.65 140.19C221.53 140.82 222.15 141 221.11 139.97" stroke="#00ADB5" stroke-opacity="0.500000" stroke-width="1.000000" stroke-linejoin="round" stroke-linecap="round"/>
	<path id="Vector 81" d="M217.01 128.63C218.81 130.04 220.59 131.33 222.03 133.15C222.69 133.98 223.21 134.94 223.95 135.7C225.45 137.26 224.42 136.48 223.34 135.42" stroke="#00ADB5" stroke-opacity="0.500000" stroke-width="1.000000" stroke-linejoin="round" stroke-linecap="round"/>
	<path id="Vector 82" d="M221.02 124.98C223.56 127.5 225.68 130.46 228.22 132.95C229.93 134.63 227.48 131.94 227.08 131.46" stroke="#00ADB5" stroke-opacity="0.500000" stroke-width="1.000000" stroke-linejoin="round" stroke-linecap="round"/>
	<path id="Vector 83" d="M225.93 122.08C228.06 121.17 230.28 120.09 231.42 117.88C231.74 117.27 232.14 116.74 232.27 116.05C232.45 115.1 232.42 115.51 231.74 116.12" stroke="#00ADB5" stroke-opacity="0.500000" stroke-width="1.000000" stroke-linejoin="round" stroke-linecap="round"/>
	<path id="Vector 84" d="M229.36 125.13C231.05 123.5 232.94 121.71 234.18 119.64C234.8 118.61 235.98 117.34 234.33 118.84" stroke="#00ADB5" stroke-opacity="0.500000" stroke-width="1.000000" stroke-linejoin="round" stroke-linecap="round"/>
	<path id="Vector 85" d="M234.79 128.55C236.33 126.81 237.7 125.19 239.12 123.37C239.57 122.78 240.97 122.01 239.29 122.48" stroke="#00ADB5" stroke-opacity="0.500000" stroke-width="1.000000" stroke-linejoin="round" stroke-linecap="round"/>
	<path id="Vector 86" d="M233.56 127.67C235.17 126.23 237 124.56 238.27 122.74C238.61 122.26 238.88 121.72 239.19 121.21C239.71 120.37 239.75 120.66 238.95 120.74" stroke="#00ADB5" stroke-opacity="0.500000" stroke-width="1.000000" stroke-linejoin="round" stroke-linecap="round"/>
	<path id="Vector 87" d="M199.39 148.05C207.43 144.65 209.41 135.44 215.96 130.22C216.75 129.59 217.4 128.88 218.33 128.45C218.95 128.15 219.72 128.01 220.28 127.64C220.63 127.41 223.49 125.13 221.5 126.07" stroke="#00ADB5" stroke-opacity="0.500000" stroke-width="1.000000" stroke-linejoin="round" stroke-linecap="round"/>
	<path id="Vector 88" d="M195.65 145.58C196.55 144.44 197.35 143.47 198.5 142.64C198.68 142.5 198.97 142.48 199.13 142.3C199.43 141.94 199.9 141.42 200.01 140.96C200.48 139.14 202.74 139.48 203.95 138.56C205.09 137.7 206.2 136.82 207.36 135.96C208.65 135.02 209.24 134.19 210.28 132.98C211.23 131.87 212.15 130.74 213.15 129.69C213.97 128.83 215.26 128.05 215.79 126.95C216.38 125.7 217.89 124.28 219.24 124.51C219.71 124.59 223.14 126.66 220.9 125.33" stroke="#00ADB5" stroke-opacity="0.500000" stroke-width="1.000000" stroke-linejoin="round" stroke-linecap="round"/>
	<path id="Vector 89" d="M202.92 150.03C208.96 146.72 212.31 139.49 216.39 134.03C217.89 132.02 220.04 130.69 221.61 128.71C222.28 127.87 223.77 126.97 222.04 126.98" stroke="#00ADB5" stroke-opacity="0.500000" stroke-width="1.000000" stroke-linejoin="round" stroke-linecap="round"/>
	<path id="Vector 90" d="M205.08 152.08C210.55 148.58 214.05 142.06 218.03 136.91C219.84 134.56 221.59 132.16 223.42 129.83C224.26 128.77 225.71 128.11 223.84 129.2" stroke="#00ADB5" stroke-opacity="0.500000" stroke-width="1.000000" stroke-linejoin="round" stroke-linecap="round"/>
	<path id="Vector 91" d="M207.23 155.73C210.64 152.26 213.4 148.53 216.19 144.52C217.89 142.08 219.36 139.34 221.36 137.15C222.5 135.89 223.38 134.42 224.42 133.08C224.84 132.55 225.13 131.92 225.56 131.39C226.53 130.19 225.85 131.27 225.18 131.92" stroke="#00ADB5" stroke-opacity="0.500000" stroke-width="1.000000" stroke-linejoin="round" stroke-linecap="round"/>
	<path id="Vector 92" d="M208.03 157.25C209.73 155.51 212.22 153.85 213.36 151.6C213.77 150.78 214.78 148.82 215.5 148.32C216.44 147.66 216.89 146.25 217.58 145.37C218.3 144.45 219 143.56 219.77 142.68C220.5 141.86 220.73 140.42 221.63 139.72C222.64 138.93 223.13 137.72 223.93 136.78C224.62 135.97 225.94 135.12 226.8 134.5C227.28 134.16 227.61 133.69 228.15 133.44C229.25 132.92 228.54 133.18 227.53 133.14" stroke="#00ADB5" stroke-opacity="0.500000" stroke-width="1.000000" stroke-linejoin="round" stroke-linecap="round"/>
	<path id="Vector 93" d="M225.79 122.73C227.2 123.11 228.93 123.38 230.21 124.18C231.04 124.69 231.76 125.21 230.25 124.27" stroke="#00ADB5" stroke-opacity="0.500000" stroke-width="1.000000" stroke-linejoin="round" stroke-linecap="round"/>
	<path id="Vector 94" d="M227.25 120.29C229.26 120.83 230.67 121.44 232.31 122.55C233.38 123.28 233.21 123.08 232.09 122.38" stroke="#00ADB5" stroke-opacity="0.500000" stroke-width="1.000000" stroke-linejoin="round" stroke-linecap="round"/>
	<path id="Vector 95" d="M229.68 117.83C231.4 118.83 233.07 119.98 234.85 120.85C235.9 121.37 235.35 121.33 234.54 120.93" stroke="#00ADB5" stroke-opacity="0.500000" stroke-width="1.000000" stroke-linejoin="round" stroke-linecap="round"/>
	<path id="Vector 96" d="M231.07 115.86C232.88 116.71 234.55 117.57 236.21 118.65C236.97 119.14 236.28 119.17 235.71 118.77" stroke="#00ADB5" stroke-opacity="0.500000" stroke-width="1.000000" stroke-linejoin="round" stroke-linecap="round"/>
	<path id="Vector 97" d="M226.68 121.87C228.05 120.18 229.42 118.58 230.66 116.84C231.02 116.35 233.17 113.61 232.24 115.01" stroke="#00ADB5" stroke-opacity="0.500000" stroke-width="1.000000" stroke-linejoin="round" stroke-linecap="round"/>
	<path id="Vector 98" d="M228.12 124.84C229.9 123.2 232.46 121.02 233.03 118.58C233.2 117.86 233.57 117.14 234.11 116.64C234.65 116.14 235.22 115.91 234.41 116.76" stroke="#00ADB5" stroke-opacity="0.500000" stroke-width="1.000000" stroke-linejoin="round" stroke-linecap="round"/>
	<path id="Vector 99" d="M226.69 124.79C228.59 122.66 230.21 121.23 231.28 118.61C231.56 117.93 231.88 117.37 232.34 116.83C232.82 116.26 233.51 115.73 232.58 116.75" stroke="#00ADB5" stroke-opacity="0.500000" stroke-width="1.000000" stroke-linejoin="round" stroke-linecap="round"/>
	<path id="Vector 100" d="M233.74 125.83C234.61 126.41 235.49 126.94 236.4 127.42C236.77 127.62 236.31 127.24 236.15 127.18" stroke="#00ADB5" stroke-opacity="0.500000" stroke-width="1.000000" stroke-linejoin="round" stroke-linecap="round"/>
	<path id="Vector 101" d="M235.44 122.99C235.5 123.04 238.94 126.1 238.33 125.42" stroke="#00ADB5" stroke-opacity="0.500000" stroke-width="1.000000" stroke-linejoin="round" stroke-linecap="round"/>
	<path id="Vector 102" d="M237.48 121.88C238.24 122.63 240.56 124.85 239.74 124.16" stroke="#00ADB5" stroke-opacity="0.500000" stroke-width="1.000000" stroke-linejoin="round" stroke-linecap="round"/>
	<path id="Vector 103" d="M232.72 127.04C233.98 125.83 236.73 123.42 237.41 121.55C237.67 120.81 238.89 119.86 237.75 120.87" stroke="#00ADB5" stroke-opacity="0.500000" stroke-width="1.000000" stroke-linejoin="round" stroke-linecap="round"/>
	<path id="Vector 104" d="M232.88 127.41C233 127.5 235.4 130.2 235.92 128.89C236.18 128.23 236.52 127.36 237.16 126.99C238.28 126.35 238.49 124.32 239.64 123.77C240.95 123.16 240.83 122.12 239.61 121.75C239.13 121.61 239.51 120.63 239.01 120.71C238.56 120.78 238.32 120.6 237.81 120.7" stroke="#00ADB5" stroke-opacity="0.500000" stroke-width="1.000000" stroke-linejoin="round" stroke-linecap="round"/>
	<path id="Vector 105" d="M225.63 122.37C226.46 124 226.61 124.6 227.94 125.28C228.3 125.47 228.77 125.21 229.04 125.35C229.58 125.64 230.64 125.64 231.05 125.13C231.86 124.09 232.15 123.42 233.39 122.79C234.17 122.39 234.8 121.45 235.16 120.67C235.56 119.81 236.28 119.17 236.7 118.31C236.87 117.94 235.43 117 235.42 116.36C235.42 116.18 233.7 116.18 233.42 116.03C233.07 115.85 232.91 115.59 232.75 115.21C232.51 114.65 232.08 115.34 231.43 115.4" stroke="#00ADB5" stroke-opacity="0.500000" stroke-width="1.000000" stroke-linejoin="round" stroke-linecap="round"/>
	<path id="Vector 106" d="M197.11 143.14C199.05 143.91 200.75 144.9 202.5 146C204.02 146.96 205.74 147.46 207.25 148.39C208.33 149.04 209.45 150.55 210.24 151.53C210.5 151.86 210.7 152.17 210.89 152.54C211.32 153.39 210.87 151.33 210.83 151.11" stroke="#00ADB5" stroke-opacity="0.500000" stroke-width="1.000000" stroke-linejoin="round" stroke-linecap="round"/>
	<path id="Vector 107" d="M215.9 127.7C216.44 128.29 218.62 131.54 218.19 129.09" stroke="#00ADB5" stroke-opacity="0.500000" stroke-width="1.000000" stroke-linejoin="round" stroke-linecap="round"/>
	<path id="Vector 33" d="M220.39 353.57C220.62 354.81 221.21 355.61 221.67 356.74C221.98 357.51 222.56 358.1 222.88 358.85C223.23 359.67 223.76 360.62 224.24 361.35C224.66 361.97 224.94 362.56 225.46 363.1C226.39 364.07 227.1 365.23 228.03 366.18C229.39 367.57 231.7 369.38 233.68 369.27C234.31 369.23 235.02 369.44 235.64 369.34C236.18 369.25 236.83 369.23 237.36 369.32C238.25 369.48 239.2 369.32 240.05 369.51C240.5 369.61 241 369.46 241.46 369.55C242.06 369.67 242.76 369.7 243.36 369.7C245.36 369.7 247.35 369.68 249.33 369.42C250.41 369.28 251.48 369.65 252.55 369.45C253.55 369.27 254.88 369.46 255.82 369.03C256.98 368.5 258.13 367.68 259.02 366.75C259.47 366.28 259.81 365.72 260.11 365.15C260.51 364.39 260.73 363.57 261.14 362.82C262.53 360.18 263.33 357.25 264.46 354.5C264.73 353.85 265.17 353.33 265.48 352.73C265.57 352.58 265.6 352.39 265.73 352.24C266.23 351.7 265.28 351.64 264.85 351.44" stroke="#00ADB5" stroke-opacity="0.500000" stroke-width="1.000000" stroke-linejoin="round" stroke-linecap="round"/>
	<path id="Vector 34" d="M220.17 353.68C221.16 352.34 222 351.35 223.44 350.59C224.64 349.95 225.89 349.19 226.98 348.36C228.65 347.08 230.95 346.51 232.98 346.12C235.2 345.71 237.38 345.22 239.63 345.22C240.33 345.22 241.02 345.43 241.72 345.45C242.55 345.46 243.39 345.49 244.22 345.56C245.5 345.67 246.81 345.65 248.09 345.68C249.87 345.72 251.57 346.68 253.36 346.83C254.42 346.91 255.65 347.08 256.69 347.38C257.07 347.49 257.51 347.57 257.87 347.75C258.32 347.98 258.64 348.36 259.05 348.63C260.38 349.49 261.86 349.89 263.3 350.55C263.74 350.75 264.5 351.09 264.99 351.09C265.66 351.09 265.62 352.38 265.62 351.09" stroke="#00ADB5" stroke-opacity="0.500000" stroke-width="1.000000" stroke-linejoin="round" stroke-linecap="round"/>
	<path id="Vector 35" d="M265.51 351.9C264.69 353.04 264.1 353.48 262.94 354.15C262.03 354.67 261.01 355.04 259.99 355.24C259.03 355.42 257.99 355.56 257.02 355.64C256.21 355.71 255.39 355.61 254.56 355.71C252.7 355.93 250.82 356.43 249.02 356.98C246.45 357.76 243.98 357.84 241.33 357.99C238.43 358.15 235.53 357.92 232.7 357.31C231.74 357.11 230.73 357.29 229.76 357.25C228.68 357.21 227.63 356.9 226.62 356.54C226.2 356.38 225.81 356.15 225.36 356.04C224.84 355.92 224.31 355.97 223.79 355.84C223.07 355.66 222.23 355.33 221.62 354.89C221.36 354.7 220.96 354.54 220.75 354.26C220.69 354.17 220.61 353.98 220.61 353.88C220.61 353.65 220.43 353.71 220.73 353.91" stroke="#00ADB5" stroke-opacity="0.500000" stroke-width="1.000000" stroke-linejoin="round" stroke-linecap="round"/>
	<path id="Vector 36" d="M241.71 363.59C242.38 363.51 243.27 363.53 242.99 362.62C242.9 362.33 242.68 362.3 242.44 362.22C241.73 361.97 240.45 362.45 240.18 363.23C239.7 364.61 240.61 366.11 242.04 365.63C242.43 365.5 243.12 365.22 243.37 364.85C243.66 364.41 243.22 364.54 242.92 364.11" stroke="#00ADB5" stroke-opacity="0.500000" stroke-width="1.000000" stroke-linejoin="round" stroke-linecap="round"/>
	<path id="Vector 37" d="M239.66 362.09C240.73 361.64 241.28 361.46 242.37 361.46C242.81 361.46 243.03 361.43 243.41 361.69C244.05 362.12 244.27 362.95 244.2 363.67C244.15 364.29 243.95 365.13 243.74 365.71C243.59 366.14 243.21 366.22 242.82 366.3C242.46 366.37 241.68 366.16 241.4 366.33C241.1 366.5 240.19 366.56 239.96 366.24C239.75 365.94 239.52 365.82 239.37 365.46C239.22 365.12 239.16 364.79 239.04 364.45C238.87 363.99 238.58 362.72 239.19 362.44C239.54 362.27 239.7 362.18 240.1 362.18C240.22 362.18 240.32 362.27 240.43 362.27C240.6 362.27 240.11 362.15 239.94 362.15" stroke="#00ADB5" stroke-opacity="0.500000" stroke-width="1.000000" stroke-linejoin="round" stroke-linecap="round"/>
	<path id="Vector 38" d="M241.6 357.48C242.38 356.43 243.09 355.35 243.9 354.33C244.33 353.78 244.87 353.31 245.34 352.78C246.67 351.28 248.04 349.63 249.06 347.88C250.06 346.15 251.43 344.26 252.92 342.96C253.71 342.28 254.41 341.52 255.1 340.73C255.76 339.96 256.07 338.88 256.7 338.07C257.18 337.44 260.37 333.17 260.93 335.77C261.15 336.79 260.19 337.5 259.59 338.13C258.91 338.84 258.22 339.74 257.64 340.55C257.08 341.33 256.4 342.01 255.85 342.8C255.11 343.86 253.76 344.63 253.22 345.84C252.78 346.83 252.04 347.64 251.48 348.56C250.71 349.84 249.81 350.91 248.9 352.08C248.19 353.01 247.06 353.78 246.55 354.83C246.13 355.72 245.37 356.09 244.68 356.67C244.38 356.91 244.02 357.05 243.76 357.4C243.67 357.51 243.51 357.65 243.43 357.52C243.38 357.44 243.2 357.61 243.23 357.69C243.35 357.98 243.06 357 243.04 356.91" stroke="#00ADB5" stroke-opacity="0.500000" stroke-width="1.000000" stroke-linejoin="round" stroke-linecap="round"/>
	<path id="Vector 39" d="M241.15 357.77C241.37 357.88 242.7 358.94 242.7 358.09C242.7 357.83 243.02 357.4 243.13 357.14C243.22 356.94 242.45 357.13 242.34 357.28C242.19 357.48 241.9 357.64 242.37 357.66C242.73 357.67 243.01 357.51 243.28 357.29C243.36 357.22 244.42 357.4 243.48 357.37C242.98 357.35 242.49 357.37 242.01 357.37C241.6 357.37 242.44 357.25 242.56 357.25C242.66 357.25 241.86 357.75 241.72 357.59C241.69 357.55 241.63 357.44 241.76 357.37" stroke="#00ADB5" stroke-opacity="0.500000" stroke-width="1.000000" stroke-linejoin="round" stroke-linecap="round"/>
	<path id="Vector 40" d="M223.55 353.51C223.61 353.54 225.59 354.62 225.6 354.49C225.61 354.33 225.5 354.19 225.57 354.03C225.91 353.33 226.34 353.67 226.92 353.94C227.37 354.15 226.68 351.82 228.04 352.8C228.74 353.31 228.93 353.23 228.81 352.37C228.72 351.73 228.94 351.73 229.47 351.79C229.84 351.84 230.1 351.92 230.3 351.56C230.55 351.13 230.84 350.88 231.35 351.07C231.78 351.22 232.16 351.66 232.45 351.1C232.58 350.86 232.47 350.12 232.88 350.26C233.13 350.35 233.47 350.7 233.76 350.59C233.98 350.51 234.15 349.79 234.4 349.91C234.66 350.02 234.93 350.54 235.25 350.42C235.41 350.36 235.71 349.82 235.4 349.88" stroke="#00ADB5" stroke-opacity="0.500000" stroke-width="1.000000" stroke-linejoin="round" stroke-linecap="round"/>
	<path id="Vector 41" d="M231.35 352.47C232.04 353.05 234.61 356.16 235.37 353.84C235.5 353.42 235.52 352.6 235.9 353.28C236.21 353.84 236.68 354.23 237.19 353.7C237.53 353.35 237.68 352.75 238.16 352.57C238.61 352.4 238.93 353.27 239.3 352.76C239.6 352.35 239.46 351.65 239.02 351.4C238.88 351.32 238.84 351.6 238.77 351.67" stroke="#00ADB5" stroke-opacity="0.500000" stroke-width="1.000000" stroke-linejoin="round" stroke-linecap="round"/>
	<path id="Vector 42" d="M237.28 348.9C238.35 348.71 239.69 348.32 240.51 349.32C240.88 349.78 240.85 350.37 240.6 350.89C240.42 351.27 239.93 351.47 239.62 351.09C239.36 350.78 239.89 350.28 240.08 350.09C240.72 349.45 241.69 350.48 241.89 351.17C242.06 351.76 240.53 353.11 240.71 352.53" stroke="#00ADB5" stroke-opacity="0.500000" stroke-width="1.000000" stroke-linejoin="round" stroke-linecap="round"/>
	<path id="Vector 43" d="M255.27 350.86C255.59 350.75 257.63 350.06 257.24 351.19C257.04 351.77 256.27 352.08 255.76 352.28C255.52 352.36 254.91 352.35 255.31 351.99C255.65 351.67 256.14 351.53 256.6 351.56C258.38 351.71 255.89 353.84 255.38 354.13C254.39 354.7 253.04 355.3 252 354.6" stroke="#00ADB5" stroke-opacity="0.500000" stroke-width="1.000000" stroke-linejoin="round" stroke-linecap="round"/>
	<path id="Vector 44" d="M244.36 347.46C244.79 348.18 245.29 348.89 245.65 349.64C245.78 349.9 245.24 349.24 245.11 348.98C245.08 348.91 244.85 348.16 244.83 348.16C244.56 348.23 244.5 349.51 244.42 349.75C244.08 350.87 243.23 350.44 242.39 350.35C241.38 350.25 240.93 351.29 240.37 351.95C239.92 352.49 239.74 352.65 240.05 353.28C240.29 353.79 240.39 354.29 240.05 354.75C239.77 355.11 239.44 355.34 239.11 355.64C238.81 355.91 239.24 355.86 239.18 355.7C239.03 355.25 238.08 355.34 237.77 355.37C236.62 355.45 235.44 355.14 234.31 355.22C233.71 355.26 233.15 355.61 232.55 355.7C231.95 355.79 232.75 356.34 232.97 356.5C233.36 356.77 232.21 355.92 231.79 355.71C231.07 355.36 230.42 355.09 230.05 354.32C229.68 353.54 229.36 353.01 228.73 352.44C228.52 352.24 228.49 351.95 228.6 351.68C228.84 351.06 229.38 350.56 229.92 350.23" stroke="#00ADB5" stroke-opacity="0.500000" stroke-width="1.000000" stroke-linejoin="round" stroke-linecap="round"/>
	<path id="Vector 45" d="M244.25 349.77C242.87 348.76 241.72 348.32 240.09 348.1C239.52 348.02 238.9 347.6 238.53 347.15C238.2 346.74 238.39 346.85 237.99 347.4C237.46 348.15 237.06 347.47 236.38 347.67C235.33 347.98 234.43 348.99 233.37 349.18C233.08 349.23 233.15 348.72 232.79 348.94C232.18 349.31 231.71 349.66 230.99 349.77C230.56 349.84 229.74 350.14 229.8 350.69" stroke="#00ADB5" stroke-opacity="0.500000" stroke-width="1.000000" stroke-linejoin="round" stroke-linecap="round"/>
	<path id="Vector 46" d="M253.66 349.77C255 349.9 256.36 349.88 257.69 350.03C258.16 350.08 258.4 350.28 258.73 350.6C259.03 350.89 259.5 351.57 259.92 351.61C260.54 351.66 260.86 351.39 261.43 351.21C261.78 351.09 262.89 351.21 262.52 351.21" stroke="#00ADB5" stroke-opacity="0.500000" stroke-width="1.000000" stroke-linejoin="round" stroke-linecap="round"/>
	<path id="Vector 47" d="M252.67 351.32C251.23 352.31 250.46 353.81 248.92 354.7C248.61 354.88 247.68 355.23 247.75 355.81C247.8 356.23 250.92 354.91 251.4 354.66" stroke="#00ADB5" stroke-opacity="0.500000" stroke-width="1.000000" stroke-linejoin="round" stroke-linecap="round"/>
	<path id="Vector 48" d="M258.04 352.7C258.82 353.31 259.5 354.18 260.47 353.87C260.74 353.79 261.29 353.75 261.47 353.57" stroke="#00ADB5" stroke-opacity="0.500000" stroke-width="1.000000" stroke-linejoin="round" stroke-linecap="round"/>
	<path id="Vector 108" d="M451.51 327.59C447.46 328.4 444.53 329.61 441.96 333.04C440.34 335.21 440.7 338.63 441.76 340.94C443.51 344.73 447.82 346.87 451.71 347.06C456.24 347.28 462.54 345.89 463.47 340.27C463.96 337.26 461.2 334.41 459.9 331.94C458.85 329.93 457.26 327.22 455.04 326.37C454.14 326.02 452.04 326.14 451.38 327.08C451.08 327.5 450.7 327.94 450.49 328.41C450.32 328.79 450.5 327.44 450.46 327.05" stroke="#00ADB5" stroke-opacity="0.500000" stroke-width="1.000000" stroke-linejoin="round" stroke-linecap="round"/>
	<path id="Vector 109" d="M453.21 337.95C452.12 338.53 450.35 338.92 451.3 340.19C451.52 340.49 451.83 340.47 452.1 340.19C452.32 339.96 453.46 338.72 452.62 338.43C450.9 337.84 451.53 341.4 452.76 339.82C453.42 338.98 452.49 338.14 451.67 338.66C450.68 339.27 451.46 340.35 452.23 339.42C452.82 338.71 452.35 338.17 451.72 338.83C451.15 339.42 451.73 340.37 452.29 339.57C452.86 338.75 452.21 338.05 451.51 338.77C450.71 339.6 451.58 339.52 452.15 338.97C452.72 338.42 451.71 338.5 451.38 338.93C450.61 339.94 451.81 339.79 452 338.93C452.29 337.66 451.03 340.57 451.64 338.36" stroke="#00ADB5" stroke-opacity="0.500000" stroke-width="1.000000" stroke-linejoin="round" stroke-linecap="round"/>
	<path id="Vector 110" d="M448.76 333.72C449.92 335.32 451.11 336.83 452.09 338.43C452.36 338.87 452.14 339.32 452.29 339.31C452.84 339.28 453.41 339.17 454 339.17C455.34 339.17 456.4 338.49 457.69 338.49C459.26 338.49 461.56 338.07 458.97 336.72" stroke="#00ADB5" stroke-opacity="0.500000" stroke-width="1.000000" stroke-linejoin="round" stroke-linecap="round"/>
	<path id="Vector 111" d="M447.45 327.46C447.2 326.17 446.01 323.04 448.23 323.38C449.03 323.5 449.57 324.35 450.04 324.9C451.26 326.31 451.13 328.02 449.15 328.14C448.63 328.17 447.9 329.24 447.32 328.48C446.65 327.62 447.33 327.67 447.45 326.64C447.52 325.96 447.1 326.02 446.92 325.35C446.78 324.84 447.07 324.28 447.19 323.91" stroke="#00ADB5" stroke-opacity="0.500000" stroke-width="1.000000" stroke-linejoin="round" stroke-linecap="round"/>
	<path id="Vector 112" d="M448.23 325.96C448.22 326.28 447.74 329.22 448.76 328.74C449.11 328.57 449.4 328.34 449.54 327.97C449.68 327.61 449.53 327.4 449.38 327.05C448.99 326.14 447.86 324.74 448.2 326.77C448.42 328.06 449.8 327.76 449.91 326.53C449.99 325.6 448.85 324.34 448.13 325.41C447.62 326.17 448.53 327.84 449.06 326.67C449.33 326.07 448.69 324.57 448 325.31C447.3 326.06 448.35 327.66 449.05 327.02C449.73 326.38 449.27 324.43 448.52 325.17C447.84 325.85 448.86 327.21 449.38 326.17C449.96 325.01 448.69 324.14 448.29 325.35C447.94 326.44 449.04 327.6 449.3 326.12C449.49 325 447.51 324.4 447.51 325.75C447.51 326.98 448.57 326.85 448.57 325.73C448.57 324.56 447.43 324.82 447.91 325.81C448.38 326.79 449.01 325.04 448.48 324.49C447.86 323.84 447.04 324.84 447.77 325.47C448.27 325.89 448.95 324.13 448.11 323.8C447.39 323.52 447.79 325.06 448.04 324.71C448.43 324.17 447.83 323.81 448.24 323.91C448.6 324.01 449.48 324.21 449.73 324.54C449.93 324.8 450.72 326.26 450.72 326.64C450.72 327.8 449.02 328.42 448.04 328.13C447.34 327.92 447.14 328.44 447.38 328.27C447.98 327.85 448.1 326.77 448.1 327.18" stroke="#00ADB5" stroke-opacity="0.500000" stroke-width="1.000000" stroke-linejoin="round" stroke-linecap="round"/>
	<path id="Vector 113" d="M448.1 346.94C447.43 348.43 446.83 349.92 446.04 351.33C445.86 351.65 445.52 352.29 445.48 352.66C445.38 353.66 446.34 350.29 446.53 349.8" stroke="#00ADB5" stroke-opacity="0.500000" stroke-width="1.000000" stroke-linejoin="round" stroke-linecap="round"/>
	<path id="Vector 114" d="M461.33 344.08C462.99 346.26 464.81 347.81 466.11 350.2C466.23 350.44 466.46 350.62 466.63 350.81C467.22 351.42 465.54 349.5 464.99 348.85" stroke="#00ADB5" stroke-opacity="0.500000" stroke-width="1.000000" stroke-linejoin="round" stroke-linecap="round"/>
	<path id="Vector 159" d="M351.49 217.05C352.53 221.12 356.53 236.26 357.49 241.79C360.13 257.01 355.99 236.24 355.98 242.96" stroke="#00ADB5" stroke-opacity="0.500000" stroke-width="2.000000" stroke-linejoin="round" stroke-linecap="round"/>
	<path id="Vector 160" d="M344.46 223.63C344.11 217.43 342.77 208.83 351.12 209.72C355.05 210.14 359.38 212.56 361.83 215.81C365.61 220.82 363.62 228.6 359.53 232.59C357.35 234.72 355.24 235.78 352.39 236.58C347.57 237.94 351.37 230.97 352.15 229.06" stroke="#00ADB5" stroke-opacity="0.500000" stroke-width="2.000000" stroke-linejoin="round" stroke-linecap="round"/>
	<path id="Vector 161" d="M366.18 231.2C374.48 230.74 382.12 229.04 385.08 238.4C386.81 243.84 388.91 250.46 387.47 256.19C386.17 261.37 383.37 264.61 378.26 262.4C370.95 259.25 370.96 253.31 374.94 247.39C376.4 245.21 382.01 240.84 382.02 238.29" stroke="#00ADB5" stroke-opacity="0.500000" stroke-width="2.000000" stroke-linejoin="round" stroke-linecap="round"/>
	<path id="Vector 162" d="M381.14 221.1C380.85 223.37 380.85 239.44 376.67 239.59C375.89 239.62 375.23 240.05 374.54 240.4C371.91 241.76 373.51 240.54 374.49 239.12C376.72 235.9 381.23 237.09 383.48 232.83C385.93 228.19 387.06 225.92 383.55 222.33C381.09 219.82 382.17 215.55 380.23 221.57" stroke="#00ADB5" stroke-opacity="0.500000" stroke-width="2.000000" stroke-linejoin="round" stroke-linecap="round"/>
	<path id="Vector 163" d="M393.38 206.52C396.59 214.03 399.52 223.81 404.66 230.35C406.02 232.08 406.79 230.57 406.77 229.23C406.74 227.53 406.28 225.81 405.8 224.2" stroke="#00ADB5" stroke-opacity="0.500000" stroke-width="2.000000" stroke-linejoin="round" stroke-linecap="round"/>
	<path id="Vector 164" d="M384.07 226.05C389.16 223.97 401.65 221.86 403.78 215.25" stroke="#00ADB5" stroke-opacity="0.500000" stroke-width="2.000000" stroke-linejoin="round" stroke-linecap="round"/>
	<path id="Vector 165" d="M399.72 206.76C421.77 246.9 400.29 218.69 411.5 211.35C418.3 206.89 418.87 227.89 420.75 218.81" stroke="#00ADB5" stroke-opacity="0.500000" stroke-width="2.000000" stroke-linejoin="round" stroke-linecap="round"/>
	<path id="Vector 166" d="M419.41 205.38C420.21 207.87 422.9 224.3 428.5 220.55C431 218.87 433.91 215.67 434.39 212.52C434.91 209.15 432.88 200.57 428.3 201.5C426.21 201.92 422.71 202.02 421.34 204.09C420.02 206.09 419.19 210.77 420.77 205.86" stroke="#00ADB5" stroke-opacity="0.500000" stroke-width="2.000000" stroke-linejoin="round" stroke-linecap="round"/>
	<path id="Vector 167" d="M435.04 201.4C441.29 197.23 448.64 195.85 449.6 205.69C449.71 206.93 449.74 208.48 450.28 209.62C450.91 210.94 449.62 206.4 448.39 205.67" stroke="#00ADB5" stroke-opacity="0.500000" stroke-width="2.000000" stroke-linejoin="round" stroke-linecap="round"/>
	<path id="Vector 168" d="M434.58 205.17C434.86 210.31 434.16 217.28 436.47 222.11C436.55 222.27 437.09 223.53 436.82 222.84C436.27 221.47 436.04 220.55 435.01 219.07" stroke="#00ADB5" stroke-opacity="0.500000" stroke-width="2.000000" stroke-linejoin="round" stroke-linecap="round"/>
	<path id="Vector 148" d="M276.3 251.73C275.44 260.09 276.95 285.82 263.3 284.22C260.46 283.89 257.87 283.39 256.52 280.6C255.11 277.69 253.93 275.14 253.79 271.83C253.62 267.75 255.18 265.83 258.35 263.99C259.46 263.35 257.07 265.96 256.86 266.21C255.47 267.87 260.19 265.85 261.99 265.43" stroke="#00ADB5" stroke-opacity="0.500000" stroke-width="2.000000" stroke-linejoin="round" stroke-linecap="round"/>
	<path id="Vector 149" d="M293.82 255.75C286.92 256.42 277.18 257.78 276.06 266.76C275.46 271.64 282.42 272.23 285.44 273.89C290.64 276.74 294.58 286.04 288.75 290.13C284.7 292.98 281.64 291.46 277.7 291.75C273.7 292.04 276.48 290.5 278.85 290.08" stroke="#00ADB5" stroke-opacity="0.500000" stroke-width="2.000000" stroke-linejoin="round" stroke-linecap="round"/>
	<path id="Vector 143" d="M331.22 34.57C330.67 40.34 330.33 46.16 329.64 51.92C329.58 52.47 329.06 54.65 329.67 52.89C330.13 51.6 329.98 50.25 330.71 49.02C331.71 47.34 336.24 40.91 338.36 41.56C342.62 42.86 338.32 51.09 337.1 53.44C336.68 54.26 335.54 56.02 336.13 56.93C336.92 58.14 338.38 53.65 338.45 53.52" stroke="#00ADB5" stroke-opacity="0.500000" stroke-width="2.000000" stroke-linejoin="round" stroke-linecap="round"/>
	<path id="Vector 144" d="M348.05 38.36C347.54 40.93 343.3 53.65 347.39 55.76C348.54 56.35 351.09 55.23 351.88 54.26C352.71 53.25 352.28 51.71 352.19 50.54" stroke="#00ADB5" stroke-opacity="0.500000" stroke-width="2.000000" stroke-linejoin="round" stroke-linecap="round"/>
	<path id="Vector 145" d="M339.64 38.63C344.12 40.02 348.73 40.94 353.19 42.38C354.24 42.71 354.63 42.87 355.2 43.84C356.08 45.36 353.74 43.97 353.34 43.51" stroke="#00ADB5" stroke-opacity="0.500000" stroke-width="2.000000" stroke-linejoin="round" stroke-linecap="round"/>
	<path id="Vector 146" d="M359.91 47.65C358.89 50.88 357.92 54.15 356.74 57.34C356.51 57.97 356.47 58.2 356.35 57.72C356.23 57.25 356.11 56.98 356.31 56.49C357.36 53.87 359.83 50.12 362.15 48.66C364.66 47.08 363.29 52.38 362.95 53.45C362.58 54.65 361.56 57.95 362.72 54.76C363.4 52.86 364.99 48.14 367.66 48.83C369.28 49.24 368.9 51.52 368.62 52.72C368.09 54.94 367.57 57.14 367.04 59.37C366.26 62.62 366.68 60.86 367.25 58.49" stroke="#00ADB5" stroke-opacity="0.500000" stroke-width="2.000000" stroke-linejoin="round" stroke-linecap="round"/>
	<path id="Vector 147" d="M379.85 40.57C378.24 46.6 376.26 52.61 374.87 58.7C374.71 59.41 374.35 62.06 375.45 62.37C376.49 62.67 380.59 60.11 379.59 59.22" stroke="#00ADB5" stroke-opacity="0.500000" stroke-width="2.000000" stroke-linejoin="round" stroke-linecap="round"/>
	<path id="Vector 153" d="M100.99 286.46C97.18 293.98 93.39 301.52 89.57 309.04C88.48 311.19 86.33 317.75 86.06 315.34C85.7 312.07 87.62 307.5 88.44 304.44C89.59 300.12 91.92 291.49 97.75 291.52C102.15 291.54 107.1 298.26 107.78 302.44C108.26 305.4 109.67 302.06 111.57 301.17" stroke="#00ADB5" stroke-opacity="0.500000" stroke-width="2.000000" stroke-linejoin="round" stroke-linecap="round"/>
	<path id="Vector 154" d="M112.8 310.58C115.36 316.77 119.13 327.24 126.9 321.48C130.47 318.83 128.7 314.3 125.18 312.86C116.54 309.34 105.65 319.18 103.5 327.28C101.35 335.37 109.85 337.85 115.7 338.65C118.93 339.09 118.21 336.21 120.99 335.21" stroke="#00ADB5" stroke-opacity="0.500000" stroke-width="2.000000" stroke-linejoin="round" stroke-linecap="round"/>
	<path id="Vector 155" d="M134.31 331.99C127.6 329.08 118.71 326.48 114.93 335.4C113.11 339.7 121.27 340.2 123.69 340.09C128.31 339.86 138.6 328.73 135.13 331.92C132.09 334.71 129.01 338.02 127.76 342.15C126.95 344.81 127.88 350.71 130.85 346.64" stroke="#00ADB5" stroke-opacity="0.500000" stroke-width="2.000000" stroke-linejoin="round" stroke-linecap="round"/>
	<path id="Vector 156" d="M160.41 337.57C150.67 338.55 139.12 339.06 135.67 350.44C133.97 356.04 137.96 359.93 142.76 361.57C146.11 362.72 149.53 360.23 151.57 357.7" stroke="#00ADB5" stroke-opacity="0.500000" stroke-width="2.000000" stroke-linejoin="round" stroke-linecap="round"/>
	<path id="Vector 157" d="M169.25 339.12C168.72 339.79 144.73 367 156.16 367.21C159.33 367.27 162.58 365.35 164.76 363.2" stroke="#00ADB5" stroke-opacity="0.500000" stroke-width="2.000000" stroke-linejoin="round" stroke-linecap="round"/>
	<path id="Vector 158" d="M148.93 344.07C153.54 347.37 158.08 350.87 163.13 353.43C164.44 354.09 166.63 354.41 167.53 355.78C168.04 356.56 167.24 354.72 167.15 354.45" stroke="#00ADB5" stroke-opacity="0.500000" stroke-width="2.000000" stroke-linejoin="round" stroke-linecap="round"/>
	<path id="Vector 169" d="M97.55 126.25C101.42 133.13 113.69 153.19 108.71 147.14C105.53 143.28 103.11 138.15 101.09 133.57C98.97 128.77 96.98 120.21 105.05 120.64C111.99 121.01 114.75 128.38 115.97 134.42C116.51 137.08 116.65 139.15 117.79 141.57C118.97 144.05 119.03 134.5 119.48 132.03" stroke="#00ADB5" stroke-opacity="0.500000" stroke-width="2.000000" stroke-linejoin="round" stroke-linecap="round"/>
	<path id="Vector 170" d="M122.53 112.26C122.74 113.3 126.08 137.09 130.93 132.51C132.98 130.59 133.42 125.84 133.69 123.24C134.5 115.11 131.21 114.11 125.72 112.39C123.1 111.56 122.57 111.6 121.85 114.4C120.37 120.16 122.7 118.54 125.68 115.34" stroke="#00ADB5" stroke-opacity="0.500000" stroke-width="2.000000" stroke-linejoin="round" stroke-linecap="round"/>
	<path id="Vector 171" d="M143.61 105.55C140.92 110.28 137.48 115.84 139.38 121.62C140.17 124.02 141.99 123.39 143.28 122.04C145.3 119.9 146.35 116.4 146.24 113.47C146.02 107.86 142.64 103.05 139.1 99.06C138.6 98.51 134.13 94.67 135 97.97C136.58 103.89 140.96 109.59 144.02 114.74C149.05 123.23 150.6 119.93 152.86 111.96" stroke="#00ADB5" stroke-opacity="0.500000" stroke-width="2.000000" stroke-linejoin="round" stroke-linecap="round"/>
	<path id="Vector 172" d="M153.34 107.02C155.01 108.64 168.21 118.45 168.62 109.75C168.65 108.96 167.69 108.72 167.37 108.04C166.55 106.31 165.19 105.17 164.45 104.26" stroke="#00ADB5" stroke-opacity="0.500000" stroke-width="2.000000" stroke-linejoin="round" stroke-linecap="round"/>
	<path id="Vector 173" d="M154.44 112.92C149.22 105.78 141.92 98.35 149.4 91.3C152.55 88.32 159.09 90.67 158.92 95.64C158.84 97.96 158.37 103.68 155.18 104.28C153.49 104.6 152.71 103.45 154.27 101.85" stroke="#00ADB5" stroke-opacity="0.500000" stroke-width="2.000000" stroke-linejoin="round" stroke-linecap="round"/>
	<path id="Vector 174" d="M166.37 83.31C169.75 85.54 193.82 100.35 181.21 106.81C179.24 107.82 177.51 105.47 176.47 103.96C174.12 100.55 180.97 95.72 181.26 92.11" stroke="#00ADB5" stroke-opacity="0.500000" stroke-width="2.000000" stroke-linejoin="round" stroke-linecap="round"/>
	<path id="Vector 175" d="M186.12 71.41C184.16 73.08 172.88 83.46 181.75 85.46C186.65 86.57 191.28 81.49 195 78.96C201 74.87 202.26 82.73 200.62 87.17C199.61 89.88 191.18 98.77 193.49 91.71" stroke="#00ADB5" stroke-opacity="0.500000" stroke-width="2.000000" stroke-linejoin="round" stroke-linecap="round"/>
	<path id="Vector 150" d="M252.69 457.65C245.18 461.57 235.35 468.74 243.46 478.24C247.35 482.8 254.54 480.93 259.66 480.41C261.1 480.26 265.07 481.7 263.99 480.7C261.65 478.54 259.97 478.68 259.27 475.02" stroke="#00ADB5" stroke-opacity="0.500000" stroke-width="2.000000" stroke-linejoin="round" stroke-linecap="round"/>
	<path id="Vector 151" d="M274.96 455.01C274.96 460.77 274.91 464.89 280.58 467.12C283.03 468.09 284.57 468.98 285.22 471.84C285.96 475.06 283.79 479.74 281.23 481.55C278.06 483.78 274.08 484.56 270.51 483.04C267.46 481.74 270.84 480.2 272.43 478.71" stroke="#00ADB5" stroke-opacity="0.500000" stroke-width="2.000000" stroke-linejoin="round" stroke-linecap="round"/>
	<path id="Vector 152" d="M299.76 448.69C298.76 452.71 294.28 463.44 298.27 467.59C299.88 469.27 303 468.34 304.99 468.82C306.97 469.3 308.66 470.88 309.88 472.51C311.81 475.09 309.97 479 307.74 480.82C304.28 483.63 299.34 482.4 295.32 482.4C293.12 482.4 294.62 482.24 295.71 480.82" stroke="#00ADB5" stroke-opacity="0.500000" stroke-width="2.000000" stroke-linejoin="round" stroke-linecap="round"/>
	<path id="Vector 176" d="M291.03 398.75C294.93 397.2 302.16 394.74 305.94 391.96C309.92 389.03 305.75 388.19 303.63 388.89C300.04 390.07 297.87 393.99 296.66 397.43C293.45 406.5 303.64 416.76 312.21 415.72C320.12 414.76 321.22 410.72 322.41 404.54" stroke="#00ADB5" stroke-opacity="0.500000" stroke-width="2.000000" stroke-linejoin="round" stroke-linecap="round"/>
	<path id="Vector 177" d="M327.47 394.01C326.59 395.51 318.16 413.56 315.83 405.07" stroke="#00ADB5" stroke-opacity="0.500000" stroke-width="2.000000" stroke-linejoin="round" stroke-linecap="round"/>
	<path id="Vector 178" d="M311.78 394.53C315.34 399.48 323.92 417.15 332.54 416.65C333.79 416.58 332.13 411.58 332.03 410.86" stroke="#00ADB5" stroke-opacity="0.500000" stroke-width="2.000000" stroke-linejoin="round" stroke-linecap="round"/>
	<path id="Vector 179" d="M335.07 394.53C337.03 406.5 340.96 442.67 338.72 430.76C337.57 424.61 327.02 391.37 336.3 392.75C340.33 393.35 350.61 399.46 347.92 405.07C346.4 408.22 337.02 409.32 341.14 407.17" stroke="#00ADB5" stroke-opacity="0.500000" stroke-width="2.000000" stroke-linejoin="round" stroke-linecap="round"/>
	<path id="Vector 180" d="M354.3 402.96C355.55 409.73 356.76 416.5 357.84 423.29C358.03 424.46 357.78 423.5 357.45 422.86C355.38 418.82 352.55 411.62 352.64 407.09C352.73 402.79 358.41 399.86 361.39 402.96" stroke="#00ADB5" stroke-opacity="0.500000" stroke-width="2.000000" stroke-linejoin="round" stroke-linecap="round"/>
	<path id="Vector 181" d="M370.5 410.86C370.37 415.82 373.82 433.17 382.03 428.12C383.2 427.4 386.1 425.63 386.19 424.03C386.23 423.17 384.74 422.97 384.16 422.97C382.66 422.97 382.28 421.03 381.63 419.81" stroke="#00ADB5" stroke-opacity="0.500000" stroke-width="2.000000" stroke-linejoin="round" stroke-linecap="round"/>
	<path id="Vector 182" d="M367.97 412.44C372.4 407.67 377.39 401.09 381.32 409.6C382.48 412.09 382.07 415.09 381.13 417.59C379.6 421.62 374.11 423.21 375.56 417.18" stroke="#00ADB5" stroke-opacity="0.500000" stroke-width="2.000000" stroke-linejoin="round" stroke-linecap="round"/>
	<path id="Vector 183" d="M395.3 402.96C398.77 408.73 412.8 424.28 403.59 431.37C400.65 433.64 398.73 433.63 395.41 433.51C390.73 433.33 393.2 432.1 394.79 428.24" stroke="#00ADB5" stroke-opacity="0.500000" stroke-width="2.000000" stroke-linejoin="round" stroke-linecap="round"/>
	<path id="Vector 184" d="M416.56 400.85C415.51 402.17 401.98 415.79 410.2 417.24C413.23 417.77 416.02 415.86 418.81 417.79C423.83 421.28 422.64 426.01 418.02 428.97C415.71 430.45 413.13 431.23 410.71 432.45C409.34 433.14 410.8 431.14 410.99 430.35" stroke="#00ADB5" stroke-opacity="0.500000" stroke-width="2.000000" stroke-linejoin="round" stroke-linecap="round"/>
	<path id="Vector 185" d="M404.92 395.06C403.74 395.96 391.09 403.27 392.88 407.7C395.14 413.29 395.89 406.41 396.31 404.01" stroke="#00ADB5" stroke-opacity="0.500000" stroke-width="2.000000" stroke-linejoin="round" stroke-linecap="round"/>
	<path id="Vector 3" d="M93.83 222.79C96.08 217.26 95.16 212.44 95.16 206.71C95.16 205.59 94.96 202.2 96.09 201.59C97.87 200.63 99.53 199.99 101.62 199.99C103.01 199.99 104.41 200.03 105.81 199.99C107.2 199.95 108.55 199.36 109.93 199.18C112.49 198.86 115.15 199.31 117.68 199.31C119.69 199.31 121.77 199.58 123.7 199.58C124.04 199.58 125.44 199.75 125.67 199.96C126.36 200.59 126.16 201.61 126.7 202.16" stroke="#00ADB5" stroke-opacity="0.500000" stroke-width="1.000000" stroke-linejoin="round" stroke-linecap="round"/>
	<path id="Vector 4" d="M126.57 202.65C126.66 204.28 126.69 206.57 127.34 208.17C127.75 209.2 127.42 210.58 127.51 211.68C127.67 213.79 127.37 215.85 127.37 217.9C127.37 220.65 127.5 223.36 127.5 226.1C127.5 228.45 125.29 228.05 123.55 227.72C122.05 227.44 120.02 228.01 118.45 228.03C115.43 228.07 112.38 228.31 109.35 228.31C106.82 228.31 104.94 227.54 102.61 226.62C101.36 226.13 100.61 226.24 99.27 226.24C98 226.24 96.96 226.03 95.69 226.44C94.95 226.69 93.62 226.48 93.19 225.69C92.69 224.74 93.69 224.32 93.69 223.55C93.69 222.9 93.62 221.03 93.83 222.79" stroke="#00ADB5" stroke-opacity="0.500000" stroke-width="1.000000" stroke-linejoin="round" stroke-linecap="round"/>
	<path id="Vector 6" d="M110 207.07C110.53 207.48 111.65 207.27 112.59 207.27C113.08 207.27 113.6 206.87 114.04 206.67C114.94 206.25 114.41 207.03 114.19 207.48C113.95 207.97 114.22 208.89 114.65 209.2C115.36 209.71 116.07 209.27 116.76 208.91C117.05 208.76 116.97 208.69 117.06 208.9C117.18 209.17 117.16 209.58 117.16 209.88C117.16 210.56 117.12 211.71 116.76 212.31C116.29 213.09 115.82 213.6 115.07 214.18C114.33 214.76 113.36 215.75 112.37 215.75C110.45 215.75 108.41 215.32 107.44 213.37C107.04 212.55 106.29 211.87 106.29 210.93C106.29 210.14 106.04 209.2 106.29 208.44C106.59 207.53 107.35 206.67 107.08 206.67C107.22 206.71 108.41 205.96 108.94 206.24C108.94 206.24 109.47 206.51 110 207.07Z" stroke="#00ADB5" stroke-opacity="0.500000" stroke-width="1.000000" stroke-linejoin="round"/>
	<path id="Vector 7" d="M111.13 205.75C111.87 205.47 113.58 204.87 113.98 203.93C114.29 203.2 113.26 203.07 112.72 203.07C112.06 203.07 111.27 204.02 111.1 204.62C111 204.95 110.91 205.29 110.81 205.63C110.76 205.8 110.83 205.91 110.86 206.07C110.88 206.18 111.89 205.63 111.86 205.47" stroke="#00ADB5" stroke-opacity="0.500000" stroke-width="1.000000" stroke-linejoin="round" stroke-linecap="round"/>
	<path id="Vector 71" d="M124.28 221.27C127.64 221.2 130.41 223.91 130.41 227.27L130.41 227.82C130.41 231.14 127.73 233.82 124.41 233.82L95.53 233.82C92.25 233.82 89.59 231.16 89.59 227.88C89.59 224.65 92.16 222.01 95.39 221.93L124.28 221.27Z" stroke="#00ADB5" stroke-opacity="0.500000" stroke-width="1.000000"/>
	<path id="Vector 72" d="M101.6 221.77C102.04 222.48 102.42 223.34 102.93 223.99C103.18 224.32 103.14 224.26 103.63 224.07C104.45 223.75 105.39 223.98 106.24 223.98C107 223.98 107.87 223.57 108.6 223.77C109.45 224.01 110.45 223.56 111.29 223.54C112.29 223.51 113.25 223.61 114.25 223.61C114.85 223.61 115.44 223.24 116 223.24C116.32 223.24 117.25 223.51 117.27 222.89C117.28 222.59 117.41 222.3 117.41 221.99C117.41 221.58 117.18 221.76 116.78 221.55" stroke="#00ADB5" stroke-opacity="0.500000" stroke-width="1.000000" stroke-linejoin="round" stroke-linecap="round"/>
	<path id="Vector 67" d="M245.21 71C245.75 70.28 246.79 68.95 245.33 68.71C245 68.66 244.69 68.46 244.37 68.61C243.37 69.08 242.44 70.12 242.44 71.35C242.44 73.32 244.52 73.75 246.03 73.72C248.57 73.68 249.35 71.1 250.24 69.01C251.15 66.9 252.16 64.82 253.1 62.73C254.17 60.36 255.92 58.47 257.02 56.12C257.5 55.11 258.12 54.22 258.73 53.3C259.67 51.87 260.35 50.44 261.03 48.85C261.58 47.55 262.2 46.37 262.88 45.14C263.16 44.64 263.05 43.88 263.58 44.41C263.98 44.82 264.61 45.08 265.15 45.18C267.5 45.63 269.67 46.11 272.09 45.91C274.54 45.7 276.99 45.34 279.4 44.85C280.22 44.69 279.87 44.89 279.48 45.4C278.82 46.28 278.26 47.21 277.64 48.1C276.82 49.26 276.53 50.66 276.04 51.98C275.51 53.44 274.88 54.84 274.37 56.32C273.39 59.18 271.95 61.79 270.17 64.2C269.15 65.59 267.87 68.02 265.95 67.92C262.97 67.77 264.98 61.66 266.4 60.47C267.17 59.83 268.01 60.52 268.1 61.38C268.23 62.57 267.84 64.19 266.73 64.77C265.57 65.38 264.67 65.31 265.57 63.73C266.11 62.78 266.44 63.83 266.66 63.36" stroke="#00ADB5" stroke-opacity="0.500000" stroke-width="2.000000" stroke-linejoin="round" stroke-linecap="round"/>
	<path id="Vector 187" d="M469.94 283.76C470.48 283.04 471.52 281.71 470.06 281.48C469.73 281.42 469.42 281.22 469.1 281.37C468.1 281.84 467.17 282.88 467.17 284.12C467.17 286.09 469.25 286.51 470.76 286.49C473.3 286.44 474.08 283.86 474.97 281.77C475.88 279.66 476.89 277.59 477.83 275.49C478.9 273.12 480.65 271.23 481.75 268.88C482.23 267.87 482.85 266.98 483.46 266.06C484.4 264.64 485.08 263.2 485.76 261.62C486.31 260.32 486.93 259.13 487.61 257.9C487.88 257.41 487.78 256.64 488.31 257.18C488.71 257.58 489.34 257.84 489.88 257.95C492.23 258.4 494.4 258.87 496.82 258.67C499.27 258.47 501.72 258.1 504.13 257.62C504.95 257.45 504.6 257.65 504.21 258.17C503.56 259.04 503 259.97 502.37 260.86C501.55 262.02 501.26 263.42 500.78 264.75C500.24 266.21 499.61 267.6 499.1 269.08C498.12 271.94 496.68 274.56 494.9 276.96C493.88 278.35 492.6 280.78 490.68 280.69C487.7 280.53 489.71 274.43 491.13 273.23C491.9 272.59 492.74 273.28 492.83 274.14C492.96 275.33 492.57 276.95 491.46 277.53C490.3 278.15 489.4 278.07 490.3 276.5C490.84 275.54 491.17 276.59 491.39 276.12" stroke="#00ADB5" stroke-opacity="0.500000" stroke-width="2.000000" stroke-linejoin="round" stroke-linecap="round"/>
	<path id="Vector 55" d="M445.91 159.66C443.41 154.95 443.56 153.61 444.13 148.88C444.44 146.27 444.56 143.72 445.2 141.15C446.33 136.57 446.7 130.39 443.15 126.69C436.16 119.42 423.15 129.76 427.09 138.98C428.59 142.49 431.18 145.09 433.05 148.4C433.8 149.73 434.22 151.17 435.2 152.41C436.14 153.6 437.3 155.08 437.3 156.56C437.3 157.81 436.94 159.42 437.79 160.53C438.96 162.05 438.54 161.27 440.28 161.27C441.47 161.27 443.23 160.28 444.19 159.48C444.88 158.91 445.25 160.56 445.25 158.97C445.25 157.6 444.82 158.74 445.69 158.74" stroke="#00ADB5" stroke-opacity="0.500000" stroke-width="1.000000" stroke-linejoin="round" stroke-linecap="round"/>
	<path id="Vector 56" d="M440.39 164.02C442.75 163.29 449.28 161.66 447.77 163.68C445.95 166.12 445.17 164.9 442.93 165.42C441.78 165.68 440.67 169.36 441.93 169.44C443.74 169.55 444.95 167.01 446.79 167.01C448.47 167.01 448.35 169.31 447.34 170.13C446.01 171.2 444.48 170.05 443.59 171.72C442.18 174.37 446.04 173.94 447.13 173.32C448.24 172.69 449.29 171.71 450.1 171.15" stroke="#00ADB5" stroke-opacity="0.500000" stroke-width="1.000000" stroke-linejoin="round" stroke-linecap="round"/>
	<path id="Vector 57" d="M445.91 158.91C445.88 159.11 445.85 160.46 445.33 160.46C445.05 160.46 444.92 160.29 444.67 160.44C444.37 160.61 444.09 161.02 443.8 161.25C443.55 161.47 442.8 161.44 442.65 161.7C442.42 162.13 441.94 162.37 441.49 162.42C440.91 162.48 440.7 162.78 440.08 162.64C439.9 162.6 439.88 162.47 439.7 162.47C439.43 162.47 439.31 162.61 439.11 162.37C438.88 162.11 438.51 161.99 438.4 161.59C438.25 161.04 437.7 160.76 438.51 161.1" stroke="#00ADB5" stroke-opacity="0.500000" stroke-width="1.000000" stroke-linejoin="round" stroke-linecap="round"/>
	<path id="Vector 58" d="M435.25 136.17C436.24 136.17 437.06 136.24 437.4 137.33C437.62 138.07 437.63 138.8 437.63 139.57C437.63 140.32 437.19 140.92 437.19 141.63C437.19 142.56 437.9 142.4 438.51 142.69C439.08 142.96 439.5 143.18 439.81 143.78C440.11 144.37 439.88 145.52 439.84 146.17C439.8 146.72 439.55 147.9 439.92 148.37C440.12 148.63 441.22 149.02 440.5 148.46" stroke="#00ADB5" stroke-opacity="0.500000" stroke-width="1.000000" stroke-linejoin="round" stroke-linecap="round"/>
	<path id="Vector 59" d="M426.92 146.56C426.13 147.11 425.32 147.57 424.44 147.91C424.07 148.06 423.58 148.32 423.66 147.71" stroke="#00ADB5" stroke-opacity="0.500000" stroke-width="1.000000" stroke-linejoin="round" stroke-linecap="round"/>
	<path id="Vector 60" d="M424.05 138.64C422.65 138.99 421.26 139.39 419.87 139.77C419.64 139.84 420.17 139.23 420.19 139.21" stroke="#00ADB5" stroke-opacity="0.500000" stroke-width="1.000000" stroke-linejoin="round" stroke-linecap="round"/>
	<path id="Vector 61" d="M423.66 131.12C422.21 130.89 420.76 130.62 419.32 130.36C418.66 130.23 418.37 130.32 418.75 129.74" stroke="#00ADB5" stroke-opacity="0.500000" stroke-width="1.000000" stroke-linejoin="round" stroke-linecap="round"/>
	<path id="Vector 62" d="M431.5 123.13C430.35 122.92 429.36 122.72 428.32 122.18C427.84 121.93 427.37 121.63 426.86 121.42C426.26 121.18 426.25 121.25 426.92 120.83" stroke="#00ADB5" stroke-opacity="0.500000" stroke-width="1.000000" stroke-linejoin="round" stroke-linecap="round"/>
	<path id="Vector 63" d="M441.49 117.96C441.66 119.18 441.6 119.91 441.13 121.02C440.88 121.61 440.66 122.36 440.53 123.01C440.49 123.23 440.46 123.35 440.32 123.52C440.27 123.58 440.46 122.84 440.5 122.73" stroke="#00ADB5" stroke-opacity="0.500000" stroke-width="1.000000" stroke-linejoin="round" stroke-linecap="round"/>
	<path id="Vector 64" d="M449.94 122.84C449.57 124.11 449.05 125.33 448.74 126.6C448.58 127.25 448.68 127.29 448.94 126.64" stroke="#00ADB5" stroke-opacity="0.500000" stroke-width="1.000000" stroke-linejoin="round" stroke-linecap="round"/>
	<path id="Vector 65" d="M453.47 131.98C452.22 133.11 451.19 134.51 450.21 135.89C450.09 136.07 449.95 136.13 449.81 136.27C449.51 136.59 450.04 135.87 450.1 135.77" stroke="#00ADB5" stroke-opacity="0.500000" stroke-width="1.000000" stroke-linejoin="round" stroke-linecap="round"/>
	<path id="Vector 188" d="M172.41 247.18C174.24 255.79 176.31 264.41 177.53 273.14C178.2 278.02 176.71 270.98 176.53 269.98C176.13 267.83 175.67 265.92 175.67 263.72C175.67 259.29 175.55 254.8 175.24 250.36C175.02 247.26 171.35 238.01 175.99 245.72C180.71 253.59 184.05 262.29 187.26 270.88C187.7 272.06 188.31 273.18 188.8 274.32C189.06 274.94 184.1 269.89 182.19 268.81" stroke="#00ADB5" stroke-opacity="0.500000" stroke-width="2.000000" stroke-linejoin="round" stroke-linecap="round"/>
	<path id="Vector 189" d="M169.56 266.26C174.85 264.06 186.53 259.91 189.93 253.73C191.35 251.14 191.07 252.34 187.08 253.12" stroke="#00ADB5" stroke-opacity="0.500000" stroke-width="2.000000" stroke-linejoin="round" stroke-linecap="round"/>
	<path id="Vector 190" d="M185.45 237.43C189.54 245.85 192.5 254.82 193.62 264.17C193.72 265.03 193.92 265.98 194.5 266.59C194.61 266.71 192.54 262.67 191.97 261.6" stroke="#00ADB5" stroke-opacity="0.500000" stroke-width="2.000000" stroke-linejoin="round" stroke-linecap="round"/>
	<path id="Vector 191" d="M185.45 237.01C188.62 238.99 200.26 246.28 192.67 250.93C192 251.34 191.22 251.71 190.74 252.37C189.74 253.75 189.61 254.15 190.34 252.27" stroke="#00ADB5" stroke-opacity="0.500000" stroke-width="2.000000" stroke-linejoin="round" stroke-linecap="round"/>
	<path id="Vector 192" d="M196.04 232.77C197.39 242.29 199.71 252.75 199.71 262.45C199.71 264.59 199.36 260.62 198.89 259.48" stroke="#00ADB5" stroke-opacity="0.500000" stroke-width="2.000000" stroke-linejoin="round" stroke-linecap="round"/>
	<path id="Vector 193" d="M205.41 249.73C207.65 256.67 208.8 260.76 202.24 262.78C200 263.47 202.71 260.08 203.29 259.67C205.25 258.25 207.2 253.71 205.01 251.42C204.13 250.52 202.04 251.66 201.43 250.58C200.52 248.97 202.55 245.94 203.78 245.16C207.32 242.91 206.88 246.08 205.41 245.06" stroke="#00ADB5" stroke-opacity="0.500000" stroke-width="2.000000" stroke-linejoin="round" stroke-linecap="round"/>
	<path id="Vector 194" d="M327.81 120.98C329.16 128.37 334.72 149.97 331.49 143.23C331.14 142.51 330.85 141.89 330.82 141.07C330.71 138.03 330.49 134.84 329.48 131.95C328.64 129.53 328.81 127.03 328.81 124.46C328.81 123.94 327.97 119.89 328.05 119.86C328.9 119.57 332.41 124 333.04 124.77C336.25 128.63 339.5 133.08 341.79 137.61C342.97 139.95 343.32 140.78 340.51 141.15" stroke="#00ADB5" stroke-opacity="0.500000" stroke-width="2.000000" stroke-linejoin="round" stroke-linecap="round"/>
	<path id="Vector 195" d="M327.48 135.93C330.61 134.28 333.6 132.95 336.83 131.76" stroke="#00ADB5" stroke-opacity="0.500000" stroke-width="2.000000" stroke-linejoin="round" stroke-linecap="round"/>
	<path id="Vector 196" d="M336.5 121.33C339.71 126.33 342.77 131.66 346.5 136.28C347.04 136.94 348.16 138.14 348.16 136.59C348.16 134.48 347.03 132.3 346.52 130.29C345.71 127.09 344.95 123.86 344.26 120.63C343.59 117.51 344.06 118.68 345.19 121.02C347.05 124.9 349.01 128.43 351.61 131.88C353.36 134.19 353.54 132.9 353.54 130.87C353.54 127.18 351.81 124.14 350.53 120.83C349.17 117.28 349.26 112.44 347.71 109.22C347.11 107.96 347.02 111.94 346.86 113.33" stroke="#00ADB5" stroke-opacity="0.500000" stroke-width="2.000000" stroke-linejoin="round" stroke-linecap="round"/>
	<path id="Vector 197" d="M354.54 108.81C354.63 109.22 355.87 119.34 358.07 118.2C359.03 117.7 359.27 116.16 360.26 115.65C361.87 114.81 363.61 116.29 364.23 117.74C365.9 121.55 363.98 125.96 360.97 128.28C356.79 131.5 358.22 125.71 358.22 124.11" stroke="#00ADB5" stroke-opacity="0.500000" stroke-width="2.000000" stroke-linejoin="round" stroke-linecap="round"/>
	<path id="Vector 198" d="M356.55 108.12C355.95 109.83 354.85 117.76 354.53 114.68C354.32 112.78 354.68 111.34 354.88 109.51C355.34 105.17 358.53 108.66 357.22 106.38" stroke="#00ADB5" stroke-opacity="0.500000" stroke-width="2.000000" stroke-linejoin="round" stroke-linecap="round"/>
	<path id="Vector 199" d="M334.26 336.5C334.15 336.29 329.33 327.65 329.75 327.4C330.33 327.06 331.41 327.39 332.09 327.13C334.1 326.34 335.72 324.72 337.37 323.38C339.12 321.97 341.5 333.03 342.03 335.36C342.67 338.18 344.34 341.92 341.22 343.55C338.4 345.02 334.69 344.57 331.62 344.5C326.6 344.39 323.13 335.82 322.55 331.55C322.12 328.45 317.99 318.48 322.43 316.48C323.61 315.95 325.63 316.32 326.92 316.32C328.76 316.32 330.37 315.17 332.25 315.17C335.23 315.17 336.13 319.05 333.53 314.79" stroke="#00ADB5" stroke-opacity="0.500000" stroke-width="2.000000" stroke-linejoin="round" stroke-linecap="round"/>
	<path id="Vector 200" d="M342.68 317.84C343.2 319.81 344.88 330.76 349.27 327.95C350.11 327.42 350.72 326.13 351.02 325.2C351.83 322.74 352 320.68 350.19 318.79C348.83 317.38 346.2 314.49 344.23 314.41C339.33 314.21 343.65 319.92 343.05 318.98" stroke="#00ADB5" stroke-opacity="0.500000" stroke-width="2.000000" stroke-linejoin="round" stroke-linecap="round"/>
	<path id="Vector 201" d="M343.41 300.32C347.03 306.26 352.49 312.81 354.68 319.66C354.96 320.53 354.97 321.13 355.5 321.94C356.29 323.18 356.66 324.97 357.41 323.09C358.49 320.36 360.96 317.95 362.9 315.85C365.29 313.26 365.62 314.03 361.35 314.03" stroke="#00ADB5" stroke-opacity="0.500000" stroke-width="2.000000" stroke-linejoin="round" stroke-linecap="round"/>
	<path id="Vector 202" d="M368.67 298.41C368.22 299.48 361.32 313.68 367.98 310.45C369.31 309.81 370.66 308.81 370.48 307.17C370.32 305.59 369.05 304.35 368.39 302.98C368.02 302.21 366.53 298.48 367.05 299.55C368.58 302.74 370.63 308.4 372.91 310.77C375.56 313.53 377.14 310.63 374.53 309.08" stroke="#00ADB5" stroke-opacity="0.500000" stroke-width="2.000000" stroke-linejoin="round" stroke-linecap="round"/>
	<path id="Vector 203" d="M372.7 299.94C382.89 316.75 370 297.88 372.97 294.58C375.84 291.39 379.23 297.52 380.31 299.47C382.18 302.86 384.03 311.67 381.12 302.6" stroke="#00ADB5" stroke-opacity="0.500000" stroke-width="2.000000" stroke-linejoin="round" stroke-linecap="round"/>
	<path id="Vector 204" d="M385.52 285.46C385.34 286.1 379.88 302.1 383.97 300.61C385.71 299.98 387.46 298.55 388.38 296.91C389.45 295.01 389.95 292.42 389.18 290.33C388.65 288.9 388.07 287.38 387.35 286.05C385.61 282.9 390.28 292.65 391.68 295.98C393.72 300.85 398.64 317.95 387.04 314.56C381.98 313.08 386.75 304.89 386.25 304.89" stroke="#00ADB5" stroke-opacity="0.500000" stroke-width="2.000000" stroke-linejoin="round" stroke-linecap="round"/>
	<path id="Vector 205" d="M241.43 206.76C243.25 206.24 244.8 205.72 246.08 204.22C246.58 203.63 246.65 202.87 246.91 202.16C247.24 201.23 246.83 200.04 246.54 199.15C246.31 198.44 247.56 198.04 248.01 198.01C248.77 197.96 249.36 198.46 250.1 198.51C250.98 198.56 251.93 198.86 252.54 199.58C252.96 200.06 253.51 200.18 253.97 200.6C254.41 201 254.76 201.7 255.07 202.22C255.99 203.7 256.25 205.44 256.51 207.14C256.64 207.95 256.72 208.84 256.59 209.67C256.43 210.65 256.6 211.6 256.22 212.54C255.96 213.19 255.55 214.05 254.96 214.44C254.36 214.83 253.8 214.97 253.65 215.79C253.33 217.5 254.15 219.18 253.83 220.9C253.55 222.44 251.6 222.67 250.4 222.92C249.57 223.09 248.06 223.35 247.26 222.9C245.77 222.05 244.69 221 243.58 219.66C242.6 218.47 242.23 216.73 242.1 215.21C241.97 213.65 241.97 211.97 242 210.4C242.02 209.36 242.32 208.31 242.41 207.27C242.49 206.42 242.75 206.35 242.33 207.44" stroke="#00ADB5" stroke-opacity="0.500000" stroke-width="1.000000" stroke-linejoin="round" stroke-linecap="round"/>
	<path id="Vector 206" d="M251.97 199.02C252.59 197.37 253.26 195.73 253.73 194.02C253.95 193.26 254 192.45 254.26 191.7C254.57 190.84 254.72 189.86 254.85 188.95C254.95 188.3 254.99 187.15 255.56 186.74C255.98 186.44 256.22 185.76 256.67 185.4C257.24 184.94 258.06 184.51 258.47 183.89C258.86 183.29 259.29 182.04 258.96 181.34C258.77 180.95 258.79 180.53 258.61 180.14C258.37 179.65 258.16 179.24 257.97 178.7C257.82 178.23 257.32 177.29 257.9 176.96C259.32 176.14 259.41 177.43 259.85 178.6C260.08 179.21 260.12 179.96 260.33 180.59C260.47 181.02 260.73 180.71 260.92 180.96C261.22 181.33 261.23 181.8 261.45 182.2C261.79 182.81 261.39 184.04 261.23 184.63C260.91 185.73 260.59 186.72 260.13 187.78C258.93 190.49 256.99 192.78 255.65 195.41C255.14 196.41 254.74 197.42 254.49 198.53C254.35 199.16 253.93 199.76 253.93 200.43C253.93 201.03 253.79 201.34 254.1 200.38" stroke="#00ADB5" stroke-opacity="0.500000" stroke-width="1.000000" stroke-linejoin="round" stroke-linecap="round"/>
	<path id="Vector 207" d="M258.35 178.53C257.31 178.7 256.17 178.76 255.24 179.24C255.11 179.31 255.31 179.14 255.4 179.12C256.65 178.97 258.01 177.82 259.15 177.25C259.99 176.84 261.14 175.89 262.11 175.89C262.39 175.89 261.18 176.7 261.04 176.83" stroke="#00ADB5" stroke-opacity="0.500000" stroke-width="1.000000" stroke-linejoin="round" stroke-linecap="round"/>
	<path id="Vector 208" d="M257.28 180.4C258.44 179.7 260.46 178.94 261.31 177.76C261.39 177.65 261.45 177.5 261.57 177.42C261.99 177.17 261.25 177.45 261.13 177.51" stroke="#00ADB5" stroke-opacity="0.500000" stroke-width="1.000000" stroke-linejoin="round" stroke-linecap="round"/>
	<path id="Vector 209" d="M258.1 181.51C259.49 180.95 262.03 180.46 262.8 178.87C262.91 178.64 262.66 178.7 262.51 178.7" stroke="#00ADB5" stroke-opacity="0.500000" stroke-width="1.000000" stroke-linejoin="round" stroke-linecap="round"/>
	<path id="Vector 210" d="M259.57 181.34C259.48 183.29 259.5 185.27 258.43 186.94C257.91 187.75 257.55 188.29 257.37 189.25C257.17 190.27 256.96 191.12 256.51 192.05C256.07 192.97 255.55 193.72 255.11 194.6C254.89 195.06 254.33 195.5 254.44 196.05C254.5 196.32 254.36 196.57 254.28 196.83C254.02 197.6 253.55 198.27 253.1 198.94C252.79 199.39 252.8 200.2 253.2 199.36" stroke="#00ADB5" stroke-opacity="0.500000" stroke-width="1.000000" stroke-linejoin="round" stroke-linecap="round"/>
	<path id="Vector 211" d="M252.95 197.07C253.69 197.23 254.81 197.75 255.57 197.75C255.58 197.75 254.93 196.92 254.83 196.81" stroke="#00ADB5" stroke-opacity="0.500000" stroke-width="1.000000" stroke-linejoin="round" stroke-linecap="round"/>
	<path id="Vector 212" d="M253.44 193.58C254.49 194.04 255.53 194.5 256.57 194.98C256.81 195.1 256.79 195.11 256.71 195.03C256.53 194.84 256.38 194.64 256.22 194.43" stroke="#00ADB5" stroke-opacity="0.500000" stroke-width="1.000000" stroke-linejoin="round" stroke-linecap="round"/>
	<path id="Vector 213" d="M254.42 191.28C255.68 191.69 256.94 192.13 258.21 192.48C258.35 192.52 258.55 192.6 258.41 192.46C258.14 192.16 257.82 191.9 257.53 191.62" stroke="#00ADB5" stroke-opacity="0.500000" stroke-width="1.000000" stroke-linejoin="round" stroke-linecap="round"/>
	<path id="Vector 214" d="M255.08 188.39C256.51 189.12 257.93 189.9 259.4 190.55C259.64 190.66 259.72 190.74 259.67 190.54C259.6 190.27 259.51 190.01 259.41 189.75" stroke="#00ADB5" stroke-opacity="0.500000" stroke-width="1.000000" stroke-linejoin="round" stroke-linecap="round"/>
	<path id="Vector 215" d="M256.88 186.35C257.01 186.42 260.96 188.65 260.64 187.8" stroke="#00ADB5" stroke-opacity="0.500000" stroke-width="1.000000" stroke-linejoin="round" stroke-linecap="round"/>
	<path id="Vector 216" d="M257.69 184.99C258.89 185.28 260.09 185.55 261.29 185.76" stroke="#00ADB5" stroke-opacity="0.500000" stroke-width="1.000000" stroke-linejoin="round" stroke-linecap="round"/>
	<path id="Vector 217" d="M259 183.63C259.54 183.66 260.09 183.69 260.64 183.72" stroke="#00ADB5" stroke-opacity="0.500000" stroke-width="1.000000" stroke-linejoin="round" stroke-linecap="round"/>
	<path id="Vector 218" d="M248.21 209.14C247.65 209.38 244.15 210.28 244.13 211.29C244.12 211.68 244.13 212.07 244.17 212.46C244.31 213.67 245.12 214.31 246.12 214.89C247.38 215.62 248.74 215.64 250.11 215.23C251.42 214.83 252.27 213.32 251.75 212.03C251.64 211.76 252.01 211.71 251.77 211.4C251.53 211.1 251.37 211.27 250.99 211.35" stroke="#00ADB5" stroke-opacity="0.500000" stroke-width="1.000000" stroke-linejoin="round" stroke-linecap="round"/>
	<path id="Vector 219" d="M246.5 212.29C247.15 210.58 247.96 208.87 248.34 207.06C248.43 206.58 248.56 206.19 248.8 205.76C249.32 204.86 249.78 203.89 250.09 202.89C250.39 201.93 250.41 200.99 250.79 200.06C250.93 199.73 251.75 198.73 251.4 199.19" stroke="#00ADB5" stroke-opacity="0.500000" stroke-width="1.000000" stroke-linejoin="round" stroke-linecap="round"/>
	<path id="Vector 220" d="M252.95 200.04C252.65 202.01 252.19 203.9 251.87 205.84C251.69 206.92 251.4 207.83 251.4 208.96C251.4 209.77 251.68 210.45 251.5 211.27C251.29 212.21 251.11 211.74 250.75 211.1" stroke="#00ADB5" stroke-opacity="0.500000" stroke-width="1.000000" stroke-linejoin="round" stroke-linecap="round"/>
	<path id="Vector 221" d="M252.14 200.04C251.57 201.27 250.34 203.29 250.34 204.85C250.34 205.73 250.39 206.67 250.33 207.56C250.26 208.63 249.46 210.01 248.98 210.93C248.83 211.23 248.62 211.47 248.52 211.8C248.4 212.21 248.49 212.23 248.21 211.78" stroke="#00ADB5" stroke-opacity="0.500000" stroke-width="1.000000" stroke-linejoin="round" stroke-linecap="round"/>
	<path id="Vector 222" d="M246.25 210.5C247.64 211.54 250.1 213.65 251.81 211.82C252.08 211.54 252.46 210.93 252.61 210.57C252.81 210.07 252.16 210.49 251.73 210.59" stroke="#00ADB5" stroke-opacity="0.500000" stroke-width="1.000000" stroke-linejoin="round" stroke-linecap="round"/>
	<path id="Vector 223" d="M247.89 208.97C248.68 208.95 250.28 209.17 251.06 208.75C251.08 208.74 251 208.76 250.97 208.78C250.9 208.85 250.74 208.74 250.66 208.72" stroke="#00ADB5" stroke-opacity="0.500000" stroke-width="1.000000" stroke-linejoin="round" stroke-linecap="round"/>
	<path id="Vector 224" d="M248.79 205.83C249.37 205.99 251.48 206.92 251.56 205.91" stroke="#00ADB5" stroke-opacity="0.500000" stroke-width="1.000000" stroke-linejoin="round" stroke-linecap="round"/>
	<path id="Vector 225" d="M249.77 203.27C250.49 203.76 253.42 206.04 252.95 203.61" stroke="#00ADB5" stroke-opacity="0.500000" stroke-width="1.000000" stroke-linejoin="round" stroke-linecap="round"/>
	<path id="Vector 226" d="M250.58 202.08C251.32 202.28 252.05 202.48 252.79 202.68" stroke="#00ADB5" stroke-opacity="0.500000" stroke-width="1.000000" stroke-linejoin="round" stroke-linecap="round"/>
	<path id="Vector 227" d="M254.18 202.08C255.09 202.97 256.9 205.05 256.96 206.61C257 207.88 256.96 209.11 256.96 210.4C256.96 211.33 257.13 212.33 257.04 213.22C256.92 214.39 255.2 214.41 255.61 215.78C255.75 216.24 255.63 216.51 256.01 216.84C256.35 217.12 256.59 217.45 256.71 217.9C257 218.95 256.43 219.9 255.73 220.62C255.3 221.07 254.73 221.98 254.22 222.28C253.97 222.43 253.45 222.32 253.16 222.32C252.89 222.32 252.34 222.5 252.1 222.62C251.74 222.79 251.28 222.49 250.83 222.66" stroke="#00ADB5" stroke-opacity="0.500000" stroke-width="1.000000" stroke-linejoin="round" stroke-linecap="round"/>
	<path id="Vector 228" d="M241.43 207.02C241.76 208.15 242 209.1 242.56 210.08C242.78 210.48 242.75 210.84 242.65 211.31C242.53 211.85 242.15 213.13 242.45 213.69C242.91 214.55 242.9 215.46 242.9 216.41C242.9 217.33 244.28 217.73 244.73 218.2C245.4 218.9 245.11 219.79 246.22 220.09C246.46 220.16 246.83 220.16 247.02 220.32C247.17 220.45 247.33 220.75 247.52 220.79C247.91 220.86 248.43 220.78 248.79 220.94C249.08 221.08 249.29 221.27 249.56 221.43C249.86 221.6 250.26 221.41 250.58 221.58C251.68 222.15 251.19 221.6 250.42 220.96" stroke="#00ADB5" stroke-opacity="0.500000" stroke-width="1.000000" stroke-linejoin="round" stroke-linecap="round"/>
	<path id="Vector 229" d="M160.1 164.31C157.92 167.21 148.54 178.85 156.53 181.48C159.01 182.3 162.24 180.42 164.91 180.69C168.69 181.07 170.81 184.42 171.74 187.89C172.81 191.89 166.91 198.99 169.74 201.14C174.61 204.82 181.61 198.6 185.63 203.54C187.91 206.34 185.51 210.41 186.93 203.8" stroke="#00ADB5" stroke-opacity="0.500000" stroke-width="1.000000" stroke-linejoin="round" stroke-linecap="round"/>
	<path id="Vector 230" d="M269.77 119.02C271.88 121.92 276.89 128.45 278.77 132.18C280.38 135.35 278.35 135.23 276.64 133.97C274.58 132.46 274.87 129.25 275.45 127.03C277.44 119.54 290.26 112.64 291.71 124.17C292.22 128.21 288.74 135.02 284 133.41C277.75 131.29 278.15 121.36 282.88 117.67C287.72 113.9 295.64 118.23 295.64 124.4C295.64 131.25 287.82 133.37 284.79 127.33C282.03 121.84 286.92 116.09 292.16 115.27C294.08 114.97 299.06 117.28 295.59 118.49" stroke="#00ADB5" stroke-opacity="0.500000" stroke-width="1.000000" stroke-linejoin="round" stroke-linecap="round"/>
	<path id="Vector 231" d="M375.56 171.15C372.28 174.54 361.92 182.44 370.64 185.52C375.71 187.31 380.4 184.37 383.54 180.37C387.01 175.95 387.6 168.96 382.08 166.09C377.79 163.86 374.09 160.27 370.5 165.89" stroke="#00ADB5" stroke-opacity="0.500000" stroke-width="1.000000" stroke-linejoin="round" stroke-linecap="round"/>
	<path id="Vector 233" d="M487.42 217.5C481.16 221.38 471.66 226.06 481.34 229.73C482.83 230.29 483.8 229.92 485.11 228.97C489.96 225.43 490.24 224.01 489.95 218.55C489.76 214.94 484.68 215.76 482.36 216.97C478.93 218.75 476.54 222.32 475.16 225.92C473.29 230.78 482.94 230.48 484.27 224.64C485.1 220.97 481.07 215.77 478.31 220.25C474.64 226.18 480.24 231.49 483.76 225.28C487.14 219.33 479.25 216.88 477.13 223.82C474.34 232.94 490.92 223.03 484.89 219.9C481.29 218.03 475.22 229.9 481.85 226.95C489.9 223.36 480.89 218.07 480.89 226.45C480.89 233.25 491.71 223.38 484.66 220.72C483.05 220.11 481.46 225.46 482.61 226.66C484.61 228.73 488.07 223.35 487.9 221.42C487.14 213.11 479.32 234.24 488.63 224.55C490.75 222.34 490.67 218.34 487.14 220.69C485.05 222.07 483.74 227.96 487.67 226.6C491.45 225.29 491.45 218 487.39 219.69C484.91 220.72 484.01 224.37 481.34 223.82" stroke="#00ADB5" stroke-opacity="0.500000" stroke-width="1.000000" stroke-linejoin="round" stroke-linecap="round"/>
	<path id="Vector 234" d="M432.75 271.74C431.71 272.94 415.03 294.35 423.42 283.44C425.34 280.95 427.1 278.5 429.72 276.74C431.33 275.66 432.89 275 434.27 273.56C435.79 271.98 433.64 272.08 433.29 275.37C432.98 278.23 433.22 290.73 432.75 290.7C429.63 290.51 427.58 287.31 424.68 286.25C423.13 285.69 418.54 286.5 419.82 285.43C422.95 282.82 432.56 275.34 429.72 278.29C427.57 280.53 423.15 288.94 424.66 286.19C425.73 284.24 428.63 277.87 428.2 278.94C427.31 281.13 425.76 284.89 425.89 287.31C426.02 289.6 430.4 283.95 430.67 283.39C432.7 279.16 428.5 288.66 430 286.4C431.35 284.36 435.9 279.17 432.64 284.26C431.93 285.38 436.02 280.24 435.28 281.34C435.07 281.66 433.22 284.89 434.3 283.77C438.18 279.73 432.46 283.93 431.74 282.8" stroke="#00ADB5" stroke-opacity="0.500000" stroke-width="1.000000" stroke-linejoin="round" stroke-linecap="round"/>
	<path id="Vector 235" d="M398.84 359.16C400.61 356.54 410.74 344.96 402.41 344.45C401.01 344.36 398.1 343.89 396.93 344.89C394.14 347.26 395.35 353.68 399.12 354.39C404.13 355.34 408.82 348.22 403.4 345.47C397.73 342.6 384.35 354.13 390.12 358.87C401.5 368.21 411.78 341.07 397.07 344.97C383.73 348.52 395.48 362.82 401.54 353.6C408.03 343.74 388.02 343.65 391.56 354.69C393.3 360.13 399.02 357.5 400.05 353.11C401.56 346.66 395.4 349.32 395.3 353.78C395.19 358.56 402.26 349.92 398.03 350.3C394.96 350.58 394.66 354.95 392.26 354.95" stroke="#00ADB5" stroke-opacity="0.500000" stroke-width="1.000000" stroke-linejoin="round" stroke-linecap="round"/>
	<path id="Vector 236" d="M197.4 309.66C198.42 314.48 200.43 329.08 200.43 324.14C200.43 320.73 197.93 317.55 197.42 314.14C197.25 312.94 197.61 309.42 196.64 308.61C195.97 308.05 202.27 313.16 203.95 314.14C207 315.92 209.19 319.27 211.85 315.72C213.12 314.01 216.87 313.78 217.39 313.35C221.14 310.23 220.79 305.57 221.66 301.5C221.97 300.04 221.18 306.46 221.18 308.34C221.18 310.75 221.6 313.95 222.22 316.21C223.11 319.43 222.75 310.35 221.92 308.61C220.55 305.77 220.68 303.25 220.68 300.18C220.68 298.97 229.14 314.17 227.65 315.34C227.03 315.82 218.74 313.44 216.24 314.28C214.07 315 212.1 315.85 210.05 316.92C209.49 317.21 208.56 318.27 208.92 317.97C210.21 316.9 214.14 313.97 212.58 314.52C210.44 315.26 208.33 317.42 206.39 318.61C202.75 320.86 201.57 320.55 200.04 324.41C199.82 324.96 202.54 324.89 203.08 325.05C206.91 326.19 209.31 323.08 212.69 321.66C217.05 319.81 222.07 316.03 226.75 315.45C230.29 315.02 224.91 313.73 224.73 313.35" stroke="#00ADB5" stroke-opacity="0.500000" stroke-width="1.000000" stroke-linejoin="round" stroke-linecap="round"/>
	<path id="Vector 237" d="M390.74 106.9C400.28 103.72 415.73 100.06 424.26 92.8C425.81 91.48 428.21 90.22 427.66 87.68C425.63 78.14 421.19 75.9 412.45 76.91C407.6 77.47 402.95 82.13 398.45 84.02C393.81 85.97 389.18 88.54 384.95 91.34C380.67 94.17 383.15 95.57 383.15 100.47C383.15 103.16 384.7 106.9 387.45 106.9C388.71 106.9 392.31 105.85 388.75 105.85C385.95 105.85 381.6 106.29 379.1 104.91C377.19 103.86 380.96 101.79 381.86 101.67C385.06 101.22 378.19 104.48 377.5 104.71C376.07 105.18 382.64 100.01 378.99 101.23C375.03 102.55 380.91 99 382.14 98.36C383.53 97.64 382.32 98.78 382.65 98.18C383.17 97.23 386.21 93.71 383.46 96.57C382.54 97.53 385.54 94.94 386.55 94.09C388.46 92.48 386.04 94.92 385.57 95.32C383.4 97.16 382.89 95.67 381.13 96.49C380.39 96.83 378.6 97.96 378.6 96.63C378.6 94.35 386.35 93.31 387.76 93.24C396.43 92.83 402.5 88.85 410.48 86.77C414.33 85.77 418.52 84.33 422.12 82.56C424.79 81.24 430.14 77.12 432.98 77.97C434.09 78.3 416.91 88.7 421.84 85.31C425.93 82.5 430.61 80.53 424.49 85.81C419.58 90.03 428.21 85.11 428.9 85.4C430.14 85.91 421.28 91.18 428.03 87.94C430.61 86.71 432.75 86.65 432.75 83.73C432.75 79.77 433.79 75.08 428.96 76.91C423.38 79.03 418.9 83.54 413.13 85.31C409.15 86.53 405.27 88.07 401.37 89.52C396.85 91.21 388.66 93.09 385.43 97.19C383.71 99.38 380.65 107.9 386.98 104.21C392.78 100.83 393.71 93.98 396.82 88.59C398.36 85.91 394.12 94.25 393.5 97.31C392.78 100.82 395.96 104.87 399.6 104.21C403.59 103.49 407.79 97.75 409.22 94.26C416.07 77.49 403.64 93.76 407.17 97.42C410.9 101.31 416.6 91.01 417.34 88.47C418.24 85.41 418.77 81.64 419.85 78.73C421.24 74.95 412.33 79.2 411.5 79.63C406.86 82.02 403.63 85.2 400.47 89.41C399.33 90.93 394.75 98.1 397.89 99.73C402.09 101.92 407.25 95.13 407.36 91.6C407.76 79.66 398.31 85.78 392.6 90.46C389.07 93.35 392.14 99.13 392.77 98.48" stroke="#00ADB5" stroke-opacity="0.500000" stroke-width="1.000000" stroke-linejoin="round" stroke-linecap="round"/>
	<path id="Vector 238" d="M262.69 392.34C262.47 392.52 254.14 400 254.14 397.87C254.14 396.63 255.06 395.29 255.88 394.48C257.51 392.87 263.92 391.63 262.38 395.56C261.34 398.2 257.11 402.08 255.91 397.11C255.42 395.05 258.82 390.9 260.89 392.66C263.17 394.6 258.27 397.08 256.73 396.2C253.98 394.64 257.28 389.08 259.93 390.24C262.71 391.44 258.89 394.73 257.63 395.38C254.67 396.92 255.08 394.44 253.58 392.87" stroke="#00ADB5" stroke-opacity="0.500000" stroke-width="1.000000" stroke-linejoin="round" stroke-linecap="round"/>
	<path id="Vector 239" d="M125.52 391.82C128.44 396.82 134 402.01 128.33 406.56C126.87 407.74 118.26 412.43 118.77 406.97C119.4 400.32 128.92 400.17 129.52 394.21C130.1 388.32 116.57 390.54 113.49 386.55C111.56 384.05 110 378.51 110.45 375.31C110.63 374.07 113.66 371.66 113.35 373.91C112.78 378.03 100.01 388.58 107.58 392.05C112.66 394.37 113.97 388.49 117.71 387.08C125.41 384.16 113.88 405.77 113.88 400.24" stroke="#00ADB5" stroke-opacity="0.500000" stroke-width="1.000000" stroke-linejoin="round" stroke-linecap="round"/>
	<path id="Vector 240" d="M373.53 460.28C371.19 466.05 366.45 483.84 366.45 477.57C366.45 476.59 366.63 475.82 366.95 474.91C368.48 470.62 370.24 466.62 372.8 462.85C374.2 460.79 375.87 454.77 377.86 459.34C378.8 461.48 381.46 467.42 380.34 469.76C378.93 472.7 374.55 474.38 371.62 474.5C370.86 474.53 362.88 475.62 365.46 473.15C368.5 470.25 371.45 461.43 376.04 460.83C376.75 460.74 378.23 461.23 378.85 461.59C379.95 462.23 378.61 463.37 378.09 464.26C377.47 465.32 372.53 472.48 372.52 472.16C372.38 467.36 377.11 460.39 379.66 456.77C380.58 455.47 375.71 464.29 374.6 466.28C373.74 467.82 374.86 471.09 371 470.28" stroke="#00ADB5" stroke-opacity="0.500000" stroke-width="1.000000" stroke-linejoin="round" stroke-linecap="round"/>
	<path id="Vector 241" d="M216.63 36.86C214.37 46.05 212.36 54.81 211.54 64.19C211.46 65.12 210.89 65.73 211.45 66.47C212.3 67.57 214.53 60.58 215.39 58.72C218.12 52.79 221.18 50.45 221.18 43.18C221.18 42.13 221.18 36.09 221.18 40.08C221.18 43.46 221.8 46.81 221.58 50.2C221.41 52.77 219.04 59.68 220.79 57.87C223.49 55.06 221.33 41 217.11 40.63C211.35 40.13 208.57 53.12 207.91 57.16C207.15 61.87 210.33 63.83 213.84 60.18C218.64 55.19 219.68 44.93 215.56 39.08C209.9 31.05 206.18 45.54 205.72 49.09C204.66 57.11 208.97 59.68 214.07 53.98C215.95 51.88 219.73 48.25 218.93 44.99C217.88 40.66 211.73 44.87 210.5 46.75C208.76 49.42 208.78 56.06 211.6 57.95C214.22 59.72 216.78 52.39 216.49 50.55C215.24 42.76 201.12 55.13 208.14 59.56C214.25 63.42 218.3 46.17 210.78 48.3C208.69 48.89 203.71 54.77 208.02 54.77" stroke="#00ADB5" stroke-opacity="0.500000" stroke-width="1.000000" stroke-linejoin="round" stroke-linecap="round"/>
	<path id="Vector 242" d="M82.5 186.95C80.22 193.66 78.59 197.94 72.83 201.7C71.38 202.64 69.47 204.31 69.17 206.2C68.54 210.24 74.66 214.7 78.14 213.49C85.48 210.95 74.38 203.39 73.19 201.2C71.13 197.38 78.59 190.53 82.02 192.54C84.7 194.11 85.88 199.56 84.3 202.22C81.99 206.11 77.04 206.26 73.16 205.65C70.08 205.16 63.9 205.82 65.71 210.59C67.98 216.56 78.7 213.43 80.31 208.37C81.87 203.44 73.4 201.58 75.22 196.96C76.46 193.78 80.41 189.82 83.91 189.82C88.1 189.82 83.91 197.96 83.29 199.24C80.53 204.88 76.31 205.44 70.97 206.96C60.92 209.83 71.75 210.24 72.38 206.96" stroke="#00ADB5" stroke-opacity="0.500000" stroke-width="1.000000" stroke-linejoin="round" stroke-linecap="round"/>
	<path id="Vector 243" d="M70.35 259.1C69.28 263.31 66.1 270.5 66.41 275.08C66.56 277.22 67.13 270.84 67.37 268.7C67.84 264.63 68.37 260.03 70.46 256.47C70.84 255.84 79.42 266.99 80.19 268.82C82.26 273.71 79.67 272.78 76.43 274.37C74.62 275.26 62.31 279.78 62.31 278.59C62.31 277.34 64.63 274.79 65.18 273.73C66.89 270.42 68.73 266.25 69.45 262.55C71 254.65 69.85 270.91 69.85 272.15C69.85 272.9 70.13 277.3 68.44 277.3C66.33 277.3 69.87 273.17 70.58 271.1C71.33 268.9 74.33 262.44 73.59 260.13C72.54 256.85 72.01 266.89 71.9 270.34C71.82 272.68 70.73 276.58 72.49 272.79C73.05 271.59 74.85 266.64 74.82 267C74.57 270.05 73.39 273.19 73.39 276.25C73.39 279.38 74.98 269.29 77.72 268C78.4 267.67 77.44 273.62 77.44 274.49C77.44 276.08 78.9 268.4 78.9 269.99C78.9 270.43 78.29 273.1 77.83 272.27C75.94 268.87 74.51 266.76 70.63 265.54C68.87 264.98 63.25 265.36 65.09 265.36C66.31 265.36 68.21 260.97 69.56 262.12C71.35 263.64 68.9 268.51 68.33 270.16C67.39 272.87 66.81 269.06 69.11 269.34C71.52 269.64 69.07 278.87 70.41 276.77C71.03 275.8 72.92 271.01 72.85 271.57C71.63 282.4 71.88 268.6 73.89 271.74" stroke="#00ADB5" stroke-opacity="0.500000" stroke-width="1.000000" stroke-linejoin="round" stroke-linecap="round"/>
	<path id="Vector 244" d="M320.9 115.86C327.34 115.53 333.55 118 332.54 110.06C332.03 106.13 329.91 99.7 331.02 95.84C332.19 91.75 339.39 82.52 333.24 79.63C328.08 77.21 321.34 84.06 320.39 88.7C319.99 90.63 320.08 96.66 323.14 96.66C325.46 96.66 326.94 94.29 328.97 96.4C331.61 99.15 332.08 101.66 330.2 105.12C325.69 113.42 307.85 104.15 317.46 94.15C318.78 92.78 323.99 86.49 326.46 88.29C329.86 90.78 329.4 97.25 327.64 100.47C325.89 103.68 319.46 107.04 316.93 102.92C315.68 100.89 316.28 99.53 318.36 99.53" stroke="#00ADB5" stroke-opacity="0.500000" stroke-width="1.000000" stroke-linejoin="round" stroke-linecap="round"/>
	<path id="Vector 245" d="M374.82 165.14C375.41 164.89 393.93 155.38 393.07 160.61C392.6 163.41 392.91 166.03 393.29 168.83C393.44 169.9 395.95 178.25 393.43 178.25C388.75 178.25 384.18 175.8 379.49 176.73C377.54 177.11 373.67 178.5 373.52 175.26C373.42 172.84 371.48 161.94 376.08 163C379.88 163.88 380.04 160.75 377.35 167.72C376.97 168.7 374.45 176.14 374.87 175.79C379.08 172.35 381.39 165.73 385.25 161.72C387.66 159.21 383.53 169.27 383.03 170.52C380.47 176.94 387.02 165.09 387.75 163.91C390.99 158.76 388.53 167.98 388.03 169.5C386.54 174.06 391.14 165.54 392.98 164.41C399.09 160.65 393.32 173.63 392.03 170.93" stroke="#00ADB5" stroke-opacity="0.500000" stroke-width="1.000000" stroke-linejoin="round" stroke-linecap="round"/>
	<path id="Vector 247" d="M324.94 264.37C325.24 272.11 325.1 276.33 331.41 271.45C333.2 270.06 332.44 273.34 332 274.14C331.27 275.48 326.97 282.18 331.3 279.61C332.39 278.96 335.35 277.66 335.35 280.17C335.35 280.56 334.02 285.41 335.32 284.06C337.44 281.85 337.48 273.52 337.6 270.28C337.62 269.57 337.92 268.75 337.32 269.11C334.21 270.95 332.74 280.61 331.13 284.38C329.74 287.64 325.73 283.8 323.43 282.27C319.06 279.38 321.8 281.44 321.91 281.22" stroke="#00ADB5" stroke-opacity="0.500000" stroke-width="1.000000" stroke-linejoin="round" stroke-linecap="round"/>
	<path id="Vector 248" d="M290.02 333.36C290 333.6 289.41 348.72 289.51 341.38C289.55 339.13 289.48 336.89 289.51 334.65C289.6 328.28 290.69 331.23 293.34 333.86C294.55 335.06 299.01 337.66 298.29 340.09C298.07 340.8 290.92 342.1 289.79 342.55C288.95 342.88 283.95 346.16 283.95 346C283.95 342.08 285.27 337.85 285.72 333.94C286.66 325.67 292.16 347.81 292.52 342.22C292.61 340.91 292.55 333.07 292.55 335.03C292.55 336.48 293.56 344.24 293.56 339.15C293.56 338 293.56 336.85 293.56 335.7C293.56 335.16 293.85 337.75 294.04 337.25C294.74 335.43 293.56 331.76 293.56 336.23C293.56 341.24 292.21 337.63 289.26 337.63C286.74 337.63 285.29 347.26 286.59 345C287.73 343.03 285.49 335 286.48 339.12C287 341.28 288.24 338.89 289.01 338.1" stroke="#00ADB5" stroke-opacity="0.500000" stroke-width="1.000000" stroke-linejoin="round" stroke-linecap="round"/>
	<mask id="mask_1_218" fill="white">
		<path id="Union" d="M301.751 277.529C299.4 276.641 297.161 275.343 295.118 273.541C279.695 259.938 286.309 239.414 295.642 228.729C304.976 218.044 362.073 222.306 335.138 271.806C335.025 271.877 334.909 271.948 334.791 272.02C331.78 281.94 334.32 290.449 337.367 300.659C338.61 304.823 339.937 309.27 341.006 314.211L312.44 312.092C304.588 301.054 301.611 289.927 301.751 277.529Z" clip-rule="evenodd" fill="" fill-opacity="1.000000" fill-rule="evenodd"/>
	</mask>
	<path id="Union" d="M301.751 277.529C299.4 276.641 297.161 275.343 295.118 273.541C279.695 259.938 286.309 239.414 295.642 228.729C304.976 218.044 362.073 222.306 335.138 271.806C335.025 271.877 334.909 271.948 334.791 272.02C331.78 281.94 334.32 290.449 337.367 300.659C338.61 304.823 339.937 309.27 341.006 314.211L312.44 312.092C304.588 301.054 301.611 289.927 301.751 277.529Z" clip-rule="evenodd" fill="#F5B9AB" fill-opacity="1.000000" fill-rule="evenodd" mask="url(#mask_1_218)"/>
	<path id="Union" d="M301.982 276.868Q298.409 275.519 295.567 273.012Q285.278 263.936 286.786 250.131Q288.058 238.482 296.164 229.203Q299.642 225.22 309.587 224.696Q320.141 224.139 328.699 228.333Q338.681 233.225 340.969 242.844Q343.746 254.52 334.531 271.456L335.138 271.806L334.772 271.2L334.425 271.414Q334.318 271.48 334.242 271.579Q334.165 271.679 334.129 271.801Q332.06 278.615 333.121 286.317Q333.768 291.016 336.704 300.853Q339.266 309.438 340.329 314.352L341.006 314.211L341.045 313.508L312.478 311.389L312.44 312.092L312.999 311.685Q302.229 296.545 302.444 277.55Q302.446 277.439 302.414 277.333Q302.382 277.227 302.319 277.135Q302.257 277.044 302.171 276.975Q302.085 276.907 301.982 276.868ZM301.52 278.19L301.751 277.529L301.058 277.509Q300.838 296.975 311.88 312.5Q311.972 312.629 312.109 312.707Q312.246 312.784 312.401 312.796L340.968 314.915Q341.063 314.922 341.156 314.903Q341.223 314.889 341.285 314.862Q341.348 314.835 341.404 314.797Q341.459 314.758 341.507 314.708Q341.554 314.659 341.591 314.601Q341.627 314.543 341.652 314.479Q341.677 314.415 341.689 314.346Q341.701 314.278 341.699 314.209Q341.698 314.139 341.683 314.071Q340.608 309.103 338.03 300.465Q335.125 290.734 334.494 286.145Q333.476 278.755 335.454 272.238L334.791 272.02L335.158 272.625L335.505 272.411Q335.659 272.316 335.746 272.156Q345.22 254.744 342.316 242.535Q339.871 232.252 329.283 227.063Q320.401 222.711 309.491 223.286Q298.976 223.841 295.121 228.255Q286.728 237.863 285.408 249.951Q283.818 264.5 294.669 274.071Q297.706 276.75 301.52 278.19Z" fill="#000000" fill-opacity="1.000000" fill-rule="nonzero"/>
	<path id="Vector 66" d="M340.26 241.91C344.73 248.35 339.91 264.25 336.36 268.23C365.8 251.32 347.16 213.17 338.08 220.12C336.6 206.02 320.97 201.04 310.31 212.97C283.59 190.63 282.18 228.7 291.61 234.49C301.04 240.27 312.49 234.76 318.43 237.75C324.36 240.73 328.03 258.81 329.95 248.78C331.87 238.74 334.67 233.86 340.26 241.91Z" fill="#00ADB5" fill-opacity="1.000000" fill-rule="nonzero"/>
	<path id="Vector 66" d="M340.26 241.91C334.67 233.86 331.87 238.74 329.95 248.78C328.03 258.81 324.36 240.73 318.43 237.75C312.49 234.76 301.04 240.27 291.61 234.49C282.18 228.7 283.59 190.63 310.31 212.97C320.97 201.04 336.6 206.02 338.08 220.12C347.16 213.17 365.8 251.32 336.36 268.23C339.91 264.25 344.73 248.35 340.26 241.91Z" stroke="#000000" stroke-opacity="1.000000" stroke-width="1.398869"/>
	<path id="Vector 83" d="M366.68 522.79L325.24 519.68L335.21 404.21C335.21 404.21 287.14 286.26 328.41 286.26C386.72 286.26 406.22 379.27 405.49 404.21C404.76 429.14 366.68 522.79 366.68 522.79Z" fill="#EEEEEE" fill-opacity="1.000000" fill-rule="nonzero"/>
	<path id="Vector 83" d="M366.68 522.79C366.68 522.79 404.76 429.14 405.49 404.21C406.22 379.27 386.72 286.26 328.41 286.26C287.14 286.26 335.21 404.21 335.21 404.21L325.24 519.68L366.68 522.79Z" stroke="#000000" stroke-opacity="1.000000" stroke-width="1.398869"/>
	<path id="Vector 84" d="M324.85 525.36L325.51 519.46L367.23 521.19L366.24 530.28C364.79 543.43 351.63 551.83 339.07 547.61C329.7 544.46 323.76 535.17 324.85 525.36Z" fill="#F5B9AB" fill-opacity="1.000000" fill-rule="nonzero"/>
	<path id="Vector 84" d="M324.85 525.36C323.76 535.17 329.7 544.46 339.07 547.61C351.63 551.83 364.79 543.43 366.24 530.28L367.23 521.19L325.51 519.46L324.85 525.36Z" stroke="#000000" stroke-opacity="1.000000" stroke-width="1.398869" stroke-linejoin="round"/>
	<path id="Vector 53" d="M264.79 439.7C237.83 412.64 271.33 323.02 276.79 312.35C284.74 297.16 308.62 270.71 340.48 286.54C388.66 310.48 366.64 428.91 357.98 469.96L264.79 439.7Z" fill="#EEEEEE" fill-opacity="1.000000" fill-rule="nonzero"/>
	<path id="Vector 53" d="M264.79 439.7L357.98 469.96C366.64 428.91 388.66 310.48 340.48 286.54C308.62 270.72 284.74 297.16 276.79 312.35C271.33 323.02 237.83 412.64 264.79 439.7Z" stroke="#000000" stroke-opacity="1.000000" stroke-width="1.398869"/>
	<path id="Vector 4604" d="M349 457L235 447C235 447 177.28 457.9 141.5 467C105.75 476.08 51 493.5 51 493.5L55.5 534L231 540C231 540 309.5 565 339.5 532.5C369.5 500 349 457 349 457Z" fill="#00ADB5" fill-opacity="1.000000" fill-rule="nonzero"/>
	<path id="Vector 4604" d="M349 457C349 457 369.5 500 339.5 532.5C309.5 565 231 540 231 540L55.5 534L51 493.5C51 493.5 105.75 476.08 141.5 467C177.28 457.9 235 447 235 447L349 457Z" stroke="#000000" stroke-opacity="1.000000" stroke-width="1.400000"/>
	<mask id="mask_1_227" fill="white">
		<path id="Union" d="M155.601 376.53L157.208 373.93L165.164 376.58C170.421 376.886 175.247 378.595 179.35 381.305L339.156 434.526C363.857 442.752 374.793 472.277 361.819 495.716L338.792 537.318C325.854 560.692 295.567 566.384 275.915 549.136L177.105 462.407L159.188 520.1L121.596 518.199L104.441 410.552C101.583 392.619 114.91 376.53 132.623 376.53L155.601 376.53Z" clip-rule="evenodd" fill="" fill-opacity="1.000000" fill-rule="evenodd"/>
	</mask>
	<path id="Union" d="M155.601 376.53L157.208 373.93L165.164 376.58C170.421 376.886 175.247 378.595 179.35 381.305L339.156 434.526C363.857 442.752 374.793 472.277 361.819 495.716L338.792 537.318C325.854 560.692 295.567 566.384 275.915 549.136L177.105 462.407L159.188 520.1L121.596 518.199L104.441 410.552C101.583 392.619 114.91 376.53 132.623 376.53L155.601 376.53Z" clip-rule="evenodd" fill="#00ADB5" fill-opacity="1.000000" fill-rule="evenodd" mask="url(#mask_1_227)"/>
	<path id="Union" d="M155.006 376.163L156.903 373.092L165.385 375.916L165.164 376.58L165.205 375.882Q173.103 376.342 179.736 380.721L179.35 381.305L179.571 380.641L339.377 433.862Q358.222 440.138 365.271 459.173Q372.316 478.195 362.431 496.054L339.403 537.657Q329.541 555.475 310 559.148Q290.449 562.822 275.454 549.661L176.644 462.933L177.105 462.407L177.773 462.615L159.695 520.826L120.995 518.869L103.75 410.662Q101.557 396.899 110.279 386.37Q119.009 375.831 132.623 375.831L155.601 375.831L155.601 376.53L155.006 376.163ZM155.991 377.23L132.623 377.23Q119.667 377.23 111.356 387.262Q103.038 397.304 105.131 410.442L122.287 518.089L121.596 518.199L121.631 517.5L159.223 519.402L159.188 520.1L158.52 519.893L176.757 461.171L276.377 548.61Q290.859 561.322 309.742 557.773Q328.636 554.222 338.18 536.979L361.207 495.377Q370.782 478.079 363.96 459.659Q357.143 441.253 338.935 435.189L179.042 381.939L178.965 381.888Q172.646 377.717 165.123 377.278L165.031 377.273L156.987 374.594L157.208 373.93L157.802 374.298L156.196 376.898L155.991 377.23Z" fill="#000000" fill-opacity="1.000000" fill-rule="nonzero"/>
	<path id="Vector 61" d="M121.16 517.76L159.6 520.11L162.58 553.52C162.58 553.52 128.86 552.51 108.4 545.88L122.15 538.89L121.16 517.76Z" fill="#EEEEEE" fill-opacity="1.000000" fill-rule="nonzero"/>
	<path id="Vector 61" d="M121.16 517.76L122.15 538.89L108.4 545.88C128.86 552.51 162.58 553.52 162.58 553.52L159.6 520.11L121.16 517.76Z" stroke="#000000" stroke-opacity="1.000000" stroke-width="1.398869" stroke-linejoin="round"/>
	<rect id="Rectangle 53" rx="2.008776" width="97.211601" height="17.687410" transform="matrix(0.250552 0.968103 0.963608 -0.267319 108.208 274.217)" fill="#EEEEEE" fill-opacity="1.000000"/>
	<rect id="Rectangle 53" rx="2.008776" width="97.211601" height="17.687410" transform="matrix(0.250552 0.968103 0.963608 -0.267319 108.208 274.217)" stroke="#000000" stroke-opacity="1.000000" stroke-width="1.398869"/>
	<rect id="Rectangle 54" rx="2.008776" width="94.106544" height="18.268261" transform="matrix(-1 0 0 1 222.934 358.8)" fill="#00ADB5" fill-opacity="1.000000"/>
	<rect id="Rectangle 54" rx="2.008776" width="94.106544" height="18.268261" transform="matrix(-1 0 0 1 222.934 358.8)" stroke="#000000" stroke-opacity="1.000000" stroke-width="1.398869"/>
	<path id="Vector 82" d="M50.86 493L55.62 533.64L26.92 541.84C26.92 541.84 21.52 506.82 24.14 484.46L33.61 497.35L50.86 493Z" fill="#EEEEEE" fill-opacity="1.000000" fill-rule="nonzero"/>
	<path id="Vector 82" d="M50.86 493L33.61 497.35L24.14 484.46C21.52 506.82 26.92 541.84 26.92 541.84L55.62 533.64L50.86 493Z" stroke="#000000" stroke-opacity="1.000000" stroke-width="1.398869" stroke-linejoin="round"/>
	<path id="Vector 83" d="M214.89 350.74L193.35 387.89C193.35 387.89 281.34 474.63 315.71 451.04C350.07 427.44 388.72 293.56 336.26 286.95C306.36 283.19 277.88 345.01 280.91 387.96L214.89 350.74Z" fill="#EEEEEE" fill-opacity="1.000000" fill-rule="evenodd"/>
	<path id="Vector 54" d="M303.35 331.68L280.91 389.96L214.89 352.74L193.35 389.89C193.35 389.89 281.34 476.63 315.71 453.04C331.89 441.92 349.03 406.34 357.15 371.12" stroke="#000000" stroke-opacity="1.000000" stroke-width="1.398869"/>
	<path id="Vector 59" d="M211.14 348.06L215.09 350.98L193.39 387.92L186.95 383.16C176.12 375.17 174.99 359.03 184.61 349.73C191.87 342.72 202.98 342.01 211.14 348.06Z" fill="#F5B9AB" fill-opacity="1.000000" fill-rule="nonzero"/>
	<path id="Vector 59" d="M211.14 348.06C202.98 342.01 191.87 342.72 184.61 349.73C174.99 359.03 176.12 375.17 186.95 383.16L193.39 387.92L215.09 350.98L211.14 348.06Z" stroke="#000000" stroke-opacity="1.000000" stroke-width="1.398869" stroke-linejoin="round"/>
</svg>
