<svg width="24.000000" height="24.000000" viewBox="0 0 24 24" fill="none" xmlns="http://www.w3.org/2000/svg" xmlns:xlink="http://www.w3.org/1999/xlink">
	<desc>
			Created with Pixso.
	</desc>
	<defs>
		<clipPath id="clip1_4440">
			<rect id="instagram" width="24.000000" height="24.000000" fill="white" fill-opacity="0"/>
		</clipPath>
	</defs>
	<rect id="instagram" width="24.000000" height="24.000000" fill="#FFFFFF" fill-opacity="0"/>
	<g clip-path="url(#clip1_4440)">
		<path id="Vector" d="M17 2C19.76 2 22 4.23 22 7L22 17C22 19.76 19.76 22 17 22L7 22C4.23 22 2 19.76 2 17L2 7C2 4.23 4.23 2 7 2L17 2Z" stroke="#EEEEEE" stroke-opacity="0.750000" stroke-width="2.000000" stroke-linejoin="round"/>
		<path id="Vector" d="M15.59 13.79C15.2 14.54 14.59 15.15 13.84 15.52C13.09 15.9 12.23 16.03 11.4 15.9C10.57 15.77 9.8 15.38 9.21 14.78C8.61 14.19 8.22 13.42 8.09 12.59C7.96 11.76 8.09 10.9 8.47 10.15C8.84 9.4 9.45 8.79 10.2 8.4C10.94 8.01 11.79 7.87 12.63 8C13.47 8.12 14.26 8.52 14.87 9.12C15.47 9.73 15.87 10.52 16 11.37C16.12 12.2 15.98 13.05 15.59 13.79Z" stroke="#EEEEEE" stroke-opacity="0.750000" stroke-width="2.000000" stroke-linejoin="round"/>
		<path id="Vector" d="M17.5 6.5L17.51 6.5" stroke="#EEEEEE" stroke-opacity="0.750000" stroke-width="2.000000" stroke-linejoin="round" stroke-linecap="round"/>
	</g>
</svg>
