<svg width="24.000000" height="24.000000" viewBox="0 0 24 24" fill="none" xmlns="http://www.w3.org/2000/svg" xmlns:xlink="http://www.w3.org/1999/xlink">
	<desc>
			Created with Pixso.
	</desc>
	<defs>
		<clipPath id="clip1_4447">
			<rect id="twitter" width="24.000000" height="24.000000" fill="white" fill-opacity="0"/>
		</clipPath>
	</defs>
	<rect id="twitter" width="24.000000" height="24.000000" fill="#FFFFFF" fill-opacity="0"/>
	<g clip-path="url(#clip1_4447)">
		<path id="Vector" d="M19.86 4.53C19.25 3.83 18.45 3.34 17.56 3.12C16.67 2.9 15.73 2.95 14.88 3.28C14.02 3.61 13.28 4.19 12.77 4.95C12.25 5.71 11.98 6.61 12 7.53L12 8.53C10.24 8.57 8.5 8.18 6.93 7.39C5.36 6.6 4.01 5.43 3 4C3 4 -1 13 8 17C5.94 18.39 3.48 19.09 1 19C10 24 21 19 21 7.5C20.99 7.22 20.97 6.94 20.92 6.67C21.94 5.66 22.66 4.39 23 3C22.04 3.67 20.98 4.19 19.86 4.53Z" stroke="#EEEEEE" stroke-opacity="0.750000" stroke-width="2.000000" stroke-linejoin="round"/>
	</g>
</svg>
