<svg width="24.000000" height="24.000000" viewBox="0 0 24 24" fill="none" xmlns="http://www.w3.org/2000/svg" xmlns:xlink="http://www.w3.org/1999/xlink">
	<desc>
			Created with Pixso.
	</desc>
	<defs>
		<clipPath id="clip1_4450">
			<rect id="youtube" width="24.000000" height="24.000000" fill="white" fill-opacity="0"/>
		</clipPath>
	</defs>
	<rect id="youtube" width="24.000000" height="24.000000" fill="#FFFFFF" fill-opacity="0"/>
	<g clip-path="url(#clip1_4450)">
		<path id="Vector" d="M21.83 5.15C21.49 4.8 21.07 4.55 20.6 4.42C18.87 4 12 4 12 4C12 4 5.12 4 3.4 4.45C2.92 4.59 2.5 4.84 2.16 5.19C1.82 5.55 1.57 5.98 1.46 6.45C1.14 8.2 0.99 9.97 1 11.75C0.98 13.53 1.14 15.32 1.46 17.08C1.59 17.53 1.83 17.95 2.17 18.29C2.51 18.63 2.93 18.87 3.4 19C5.12 19.45 12 19.45 12 19.45C12 19.45 18.87 19.45 20.6 19C21.07 18.86 21.49 18.61 21.83 18.26C22.17 17.9 22.42 17.47 22.54 17C22.85 15.26 23 13.51 23 11.75C23.01 9.96 22.85 8.17 22.54 6.42C22.42 5.94 22.17 5.51 21.83 5.15Z" stroke="#EEEEEE" stroke-opacity="0.750000" stroke-width="2.000000" stroke-linejoin="round"/>
		<path id="Vector" d="M15.5 11.75L9.75 8.47L9.75 15.02L15.5 11.75Z" stroke="#EEEEEE" stroke-opacity="0.750000" stroke-width="2.000000" stroke-linejoin="round"/>
	</g>
</svg>
